<?xml version="1.0" encoding="utf-8"?>
<!-- Generator: Adobe Illustrator 26.3.1, SVG Export Plug-In . SVG Version: 6.00 Build 0)  -->
<svg version="1.1" id="_이어_2" xmlns="http://www.w3.org/2000/svg" xmlns:xlink="http://www.w3.org/1999/xlink" x="0px" y="0px"
	 viewBox="0 0 116.9 146.5" style="enable-background:new 0 0 116.9 146.5;" xml:space="preserve">
<style type="text/css">
	.st0{fill:#FFFFFF;}
</style>
<g id="_이어_1-2">
	<path d="M95.2,38.5l12-13.9c0,0,1.4-4-0.9-3.9s-11.2,0-11.2,0s0-16.5,0-16.9s-6.3,2.9-8.6,4.6c-2.3,1.7-7.2,3.9-7.2,3.9l-8.9-8.5
		l-4.7,8.8c0,0-2,13.7-2,14.3S95.2,38.5,95.2,38.5z"/>
	<path id="rect1481-2" d="M29.7,47.4c-3.3-0.2-7.9,4.4-8,7.9c-0.5,3,2.6,7.8,5.7,7.8c3.5,0.2,8.5-6.1,8.5-9.7
		C35.8,50.8,32.6,47.4,29.7,47.4L29.7,47.4z M88.7,69.4c-3.4,0-7.2,4.9-7.3,8.4c0.1,2.6,2.1,7.5,5,7.6c3.2,0,8.6-4.7,8.7-8.4
		C95.1,74.2,91.6,69.5,88.7,69.4L88.7,69.4z"/>
	<path id="path518-3-8-3" class="st0" d="M46.9,146.5c-4.4-1-9-3.3-11.5-7c-3.3-5.1-3.7-11.3-0.5-14.3s6.5-3.5,10.5-3.2
		c6.5,0.9,10.8,7.1,10.9,13.2c-0.1,4.3-2,8-5.7,10C49.3,145.9,47.6,146.5,46.9,146.5L46.9,146.5z M25.7,136.2
		c-0.4,0-1.4-0.7-2.2-1.5c-0.8-0.8-2.1-2.9-2.8-4.7c-4.6-11.4-0.9-23.9,10.5-29c2.1-2.2,21.5-4.3,20.9-8.2c-0.3-0.8-2.5-3.1-4.3-4.4
		c-4.7-3.2-10.1-3.1-15.1-0.7c-5.5,1.8-13.3,12.3-18.5,12.1c-1-0.1-3.4-2.5-5.3-5.2C3.6,86.9,1.3,77,1.3,69.3
		c-0.1-8.9,2.3-17.5,6.9-24.7c8.3-12.3,20.7-21.1,35.2-24.1c0.8-0.2,5-0.3,9.3-0.4l7.9-0.1l1.2-6.1c0.6-3.4,1.9-7.6,2.8-9.5
		c1.2-2.5,2.3-3.5,4-3.7c1.8-0.2,3.6,0.8,6.9,3.9l4.5,4.2l4.4-3.2c2.4-1.7,5.7-3.8,7.3-4.7c2.2-1.1,3.4-1.3,4.7-0.6
		c1,0.5,2.1,1.8,2.4,2.9c0.3,1.1,0.3,4.9,0,8.5L98,18.2l3.6-0.6c2-0.3,4.8-0.2,6.2,0.4c1.4,0.5,2.8,1.6,3.1,2.5
		c0.3,0.8-0.1,2.8-0.8,4.4s-3.3,5.1-5.7,7.7c-3.8,4.3-4.1,4.9-2.8,6c0.8,0.7,3.1,3.7,5.2,6.7c6.3,9.4,9.9,20.2,10.1,31.4
		c0,3.3-0.8,8.8-1.7,12.2c-4,14.4-15.1,24.1-28.9,28c-2.8,0.8-9.3,1.7-14.4,2c-11.3,1.8-23.3-3.7-32.7-0.9
		c-4.6,1.8-10.2,5.4-10.4,10.8c0,1.4-0.5,3.6-1.1,4.9C26.8,135.2,26.1,136.2,25.7,136.2L25.7,136.2L25.7,136.2z M87.1,84.2
		c3.2,0,6.6-3.7,6.8-7.4c-0.1-2.6-1.3-5.6-4.2-5.6c-3.4,0-6.3,3.6-6.3,7C83.4,80.8,84.2,84.1,87.1,84.2z M28,61.8
		c3.5,0.2,6.5-4.1,6.5-7.7c-0.1-2.7-1.5-5.2-4.4-5.3c-3.3-0.2-6.2,3.5-6.3,7C23.5,58.8,25.1,61.8,28,61.8z M96,33
		c0.6,0,2.8-2,4.9-4.4s3.8-4.8,3.8-5.2s-2-0.5-4.4-0.2c-2.4,0.3-5.2,0.8-6.2,1.1c-1.7,0.5-1.7,0-1.1-9.1l0.7-9.6l-2.6,1.7
		c-1.4,0.9-5.1,3.6-8.1,5.9c-3,2.3-5.7,3.8-5.8,3.2c-0.2-0.5-1.6-2.9-3.1-5.3S70.7,7,70.1,7c-0.8,0-1.7,1.9-2.3,4.7
		c-0.6,2.6-1.1,5.8-1.1,7.2c0,2.3,0.5,2.6,5.1,3.7c2.8,0.6,7.3,2.1,10,3.2s6.8,3.2,9.1,4.6C93,31.8,95.4,33,96,33L96,33L96,33z
		 M12.8,28.1c-0.8,0.1-4-1.1-7.2-2.6S0,22.5,0,21.9s0.6-2.5,1.4-3.2c1.1-0.9,2.3-0.1,7.3,2.2c5.2,2.4,6.1,3.2,5.8,5
		C14.3,26.9,13.5,28,12.8,28.1L12.8,28.1L12.8,28.1z M19.8,20.7c-1.4,0.2-3.2-1.6-7.2-7.4C9.2,8.7,6.8,5.3,7,4.1
		C7.1,3,8.6,1.7,9.5,1.7c0.9,0,3.8,3.5,7,8c3.1,4.3,5.5,8.5,5.4,9.3C21.8,19.8,20.8,20.6,19.8,20.7z M28.6,15.3
		c-1.2,0-2.1-0.8-2.4-2.1C26,12.1,25.7,9,25.6,6.5c-0.2-4.4-0.2-5.1,2-5.1s2.5,0.9,3.2,5.9c0.4,3,0.5,6,0.3,6.7
		C30.8,14.7,29.6,15.3,28.6,15.3L28.6,15.3L28.6,15.3z"/>
</g>
</svg>
