<?xml version="1.0" encoding="utf-8"?>
<!-- Generator: Adobe Illustrator 26.3.1, SVG Export Plug-In . SVG Version: 6.00 Build 0)  -->
<svg version="1.1" id="레이어_1" xmlns="http://www.w3.org/2000/svg" xmlns:xlink="http://www.w3.org/1999/xlink" x="0px"
	 y="0px" viewBox="0 0 350.7 256.4" style="enable-background:new 0 0 350.7 256.4;" xml:space="preserve">
<style type="text/css">
	.st0{fill:#C6C6C6;}
	.st1{fill:#FFFFFF;}
	.st2{fill:#E7E8DA;}
	.st3{fill:#7F7377;}
	.st4{fill:#F9F9F4;}
</style>
<path id="path518-3-8-3_00000060013239582198801370000004448183311783672245_" class="st0" d="M1397.3-982.8c-1-0.2-2.1-0.8-2.7-1.6
	c-0.8-1.2-0.9-2.7-0.1-3.4c0.7-0.7,1.5-0.8,2.5-0.8c1.5,0.2,2.6,1.7,2.6,3.1c0,1-0.5,1.9-1.3,2.4
	C1397.9-982.9,1397.5-982.8,1397.3-982.8L1397.3-982.8z M1392.3-985.2c-0.1,0-0.3-0.2-0.5-0.4s-0.5-0.7-0.7-1.1
	c-1.1-2.7-0.2-5.6,2.5-6.8c0.5-0.5,5.1-1,4.9-1.9c-0.1-0.2-0.6-0.7-1-1c-1.1-0.8-2.4-0.7-3.6-0.2c-1.3,0.4-3.1,2.9-4.3,2.8
	c-0.2,0-0.8-0.6-1.2-1.2c-1.2-1.8-1.8-4.1-1.8-5.9c0-2.1,0.5-4.1,1.6-5.8c2-2.9,4.9-5,8.3-5.7c0.2,0,1.2-0.1,2.2-0.1h1.9l0.3-1.4
	c0.1-0.8,0.4-1.8,0.7-2.2c0.3-0.6,0.5-0.8,0.9-0.9c0.4,0,0.8,0.2,1.6,0.9l1.1,1l1-0.7c0.6-0.4,1.3-0.9,1.7-1.1
	c0.5-0.3,0.8-0.3,1.1-0.1c0.2,0.1,0.5,0.4,0.6,0.7s0.1,1.1,0,2l-0.2,1.5l0.9-0.1c0.5-0.1,1.1,0,1.5,0.1c0.3,0.1,0.7,0.4,0.7,0.6
	c0.1,0.2,0,0.7-0.2,1c-0.2,0.4-0.8,1.2-1.3,1.8c-0.9,1-1,1.2-0.7,1.4c0.2,0.2,0.7,0.9,1.2,1.6c1.5,2.2,2.3,4.8,2.4,7.4
	c0,0.8-0.2,2.1-0.4,2.9c-0.9,3.4-3.5,5.7-6.8,6.6c-0.7,0.2-2.2,0.4-3.4,0.5c-2.7,0.4-5.5-0.9-7.7-0.2c-1.1,0.4-2.4,1.3-2.4,2.5
	c0,0.3-0.1,0.8-0.3,1.2C1392.6-985.4,1392.4-985.2,1392.3-985.2L1392.3-985.2z M1406.8-997.4c0.8,0,1.6-0.9,1.6-1.7
	c0-0.6-0.3-1.3-1-1.3c-0.8,0-1.5,0.8-1.5,1.6C1405.9-998.2,1406.1-997.4,1406.8-997.4z M1392.9-1002.7c0.8,0,1.5-1,1.5-1.8
	c0-0.6-0.4-1.2-1-1.2c-0.8-0.1-1.5,0.8-1.5,1.6C1391.8-1003.4,1392.1-1002.7,1392.9-1002.7z M1408.9-1009.5c0.1,0,0.7-0.5,1.1-1
	c0.5-0.6,0.9-1.1,0.9-1.2c0-0.1-0.5-0.1-1,0s-1.2,0.2-1.5,0.3c-0.4,0.1-0.4,0-0.3-2.1l0.2-2.2l-0.6,0.4c-0.3,0.2-1.2,0.8-1.9,1.4
	s-1.3,0.9-1.4,0.8c0-0.1-0.4-0.7-0.7-1.2s-0.8-1-0.9-1c-0.2,0-0.4,0.5-0.6,1.1c-0.1,0.6-0.3,1.4-0.3,1.7c0,0.5,0.1,0.6,1.2,0.9
	c0.7,0.2,1.7,0.5,2.4,0.7s1.6,0.7,2.1,1.1S1408.7-1009.5,1408.9-1009.5L1408.9-1009.5z M1389.3-1010.6c-0.2,0-0.9-0.3-1.7-0.6
	c-0.8-0.4-1.3-0.7-1.3-0.9s0.1-0.6,0.3-0.7c0.3-0.2,0.5,0,1.7,0.5c1.2,0.6,1.4,0.8,1.4,1.2
	C1389.6-1010.9,1389.4-1010.7,1389.3-1010.6L1389.3-1010.6z M1390.9-1012.4c-0.3,0-0.8-0.4-1.7-1.7c-0.8-1.1-1.4-1.9-1.3-2.2
	c0-0.3,0.4-0.6,0.6-0.6s0.9,0.8,1.7,1.9c0.7,1,1.3,2,1.3,2.2C1391.4-1012.6,1391.1-1012.4,1390.9-1012.4z M1393-1013.6
	c-0.3,0-0.5-0.2-0.6-0.5s-0.1-1-0.2-1.6c0-1,0-1.2,0.5-1.2s0.6,0.2,0.7,1.4c0.1,0.7,0.1,1.4,0.1,1.6
	C1393.5-1013.8,1393.2-1013.6,1393-1013.6L1393-1013.6z"/>
<path id="path518-3-8-3_00000005981808240754549260000009566722929473521594_" class="st0" d="M1497.3-1082.8
	c-1-0.2-2.1-0.8-2.7-1.6c-0.8-1.2-0.9-2.7-0.1-3.4c0.7-0.7,1.5-0.8,2.5-0.8c1.5,0.2,2.6,1.7,2.6,3.1c0,1-0.5,1.9-1.3,2.4
	C1497.9-1082.9,1497.5-1082.8,1497.3-1082.8L1497.3-1082.8z M1492.3-1085.2c-0.1,0-0.3-0.2-0.5-0.4s-0.5-0.7-0.7-1.1
	c-1.1-2.7-0.2-5.6,2.5-6.8c0.5-0.5,5.1-1,4.9-1.9c-0.1-0.2-0.6-0.7-1-1c-1.1-0.8-2.4-0.7-3.6-0.2c-1.3,0.4-3.1,2.9-4.3,2.8
	c-0.2,0-0.8-0.6-1.2-1.2c-1.2-1.8-1.8-4.1-1.8-5.9c0-2.1,0.5-4.1,1.6-5.8c2-2.9,4.9-5,8.3-5.7c0.2,0,1.2-0.1,2.2-0.1h1.9l0.3-1.4
	c0.1-0.8,0.4-1.8,0.7-2.2c0.3-0.6,0.5-0.8,0.9-0.9c0.4,0,0.8,0.2,1.6,0.9l1.1,1l1-0.7c0.6-0.4,1.3-0.9,1.7-1.1
	c0.5-0.3,0.8-0.3,1.1-0.1c0.2,0.1,0.5,0.4,0.6,0.7c0.1,0.3,0.1,1.1,0,2l-0.2,1.5l0.9-0.1c0.5-0.1,1.1,0,1.5,0.1
	c0.3,0.1,0.7,0.4,0.7,0.6c0.1,0.2,0,0.7-0.2,1c-0.2,0.4-0.8,1.2-1.3,1.8c-0.9,1-1,1.2-0.7,1.4c0.2,0.2,0.7,0.9,1.2,1.6
	c1.5,2.2,2.3,4.8,2.4,7.4c0,0.8-0.2,2.1-0.4,2.9c-0.9,3.4-3.5,5.7-6.8,6.6c-0.7,0.2-2.2,0.4-3.4,0.5c-2.7,0.4-5.5-0.9-7.7-0.2
	c-1.1,0.4-2.4,1.3-2.4,2.5c0,0.3-0.1,0.8-0.3,1.2C1492.6-1085.4,1492.4-1085.2,1492.3-1085.2L1492.3-1085.2z M1506.8-1097.4
	c0.8,0,1.6-0.9,1.6-1.7c0-0.6-0.3-1.3-1-1.3c-0.8,0-1.5,0.8-1.5,1.6C1505.9-1098.2,1506.1-1097.4,1506.8-1097.4z M1492.9-1102.7
	c0.8,0,1.5-1,1.5-1.8c0-0.6-0.4-1.2-1-1.2c-0.8-0.1-1.5,0.8-1.5,1.6C1491.8-1103.4,1492.1-1102.7,1492.9-1102.7z M1508.9-1109.5
	c0.1,0,0.7-0.5,1.1-1c0.5-0.6,0.9-1.1,0.9-1.2s-0.5-0.1-1,0c-0.6,0.1-1.2,0.2-1.5,0.3c-0.4,0.1-0.4,0-0.3-2.1l0.2-2.2l-0.6,0.4
	c-0.3,0.2-1.2,0.8-1.9,1.4s-1.3,0.9-1.4,0.8c0-0.1-0.4-0.7-0.7-1.2c-0.4-0.6-0.8-1-0.9-1c-0.2,0-0.4,0.5-0.6,1.1
	c-0.1,0.6-0.3,1.4-0.3,1.7c0,0.5,0.1,0.6,1.2,0.9c0.7,0.2,1.7,0.5,2.4,0.7s1.6,0.7,2.1,1.1
	C1508.2-1109.7,1508.7-1109.5,1508.9-1109.5L1508.9-1109.5z M1489.3-1110.6c-0.2,0-0.9-0.3-1.7-0.6c-0.8-0.4-1.3-0.7-1.3-0.9
	s0.1-0.6,0.3-0.7c0.3-0.2,0.5,0,1.7,0.5c1.2,0.6,1.4,0.8,1.4,1.2C1489.6-1110.9,1489.4-1110.7,1489.3-1110.6L1489.3-1110.6z
	 M1490.9-1112.4c-0.3,0-0.8-0.4-1.7-1.7c-0.8-1.1-1.4-1.9-1.3-2.2c0-0.3,0.4-0.6,0.6-0.6s0.9,0.8,1.7,1.9c0.7,1,1.3,2,1.3,2.2
	C1491.4-1112.6,1491.1-1112.4,1490.9-1112.4z M1493-1113.6c-0.3,0-0.5-0.2-0.6-0.5s-0.1-1-0.2-1.6c0-1,0-1.2,0.5-1.2
	s0.6,0.2,0.7,1.4c0.1,0.7,0.1,1.4,0.1,1.6S1493.2-1113.6,1493-1113.6L1493-1113.6z"/>
<path id="path518-3-8-3_00000010281281690904363050000014020899875716944528_" class="st0" d="M1295.2-1082.8
	c-1-0.2-2.1-0.8-2.7-1.6c-0.8-1.2-0.9-2.7-0.1-3.4c0.7-0.7,1.5-0.8,2.5-0.8c1.5,0.2,2.6,1.7,2.6,3.1c0,1-0.5,1.9-1.3,2.4
	C1295.7-1082.9,1295.3-1082.8,1295.2-1082.8L1295.2-1082.8z M1290.2-1085.2c-0.1,0-0.3-0.2-0.5-0.3s-0.5-0.7-0.7-1.1
	c-1.1-2.7-0.2-5.6,2.5-6.8c0.5-0.5,5.1-1,4.9-1.9c-0.1-0.2-0.6-0.7-1-1c-1.1-0.8-2.4-0.7-3.6-0.2c-1.3,0.4-3.1,2.9-4.3,2.8
	c-0.2,0-0.8-0.6-1.2-1.2c-1.2-1.8-1.8-4.1-1.8-5.9c0-2.1,0.5-4.1,1.6-5.8c2-2.9,4.9-5,8.3-5.7c0.2,0,1.2-0.1,2.2-0.1h1.9l0.3-1.4
	c0.1-0.8,0.4-1.8,0.7-2.2c0.3-0.6,0.5-0.8,0.9-0.9c0.4,0,0.8,0.2,1.6,0.9l1.1,1l1-0.7c0.6-0.4,1.3-0.9,1.7-1.1
	c0.5-0.3,0.8-0.3,1.1-0.1c0.2,0.1,0.5,0.4,0.6,0.7c0.1,0.3,0.1,1.1,0,2l-0.2,1.5l0.9-0.1c0.5-0.1,1.1,0,1.5,0.1
	c0.3,0.1,0.7,0.4,0.7,0.6c0.1,0.2,0,0.7-0.2,1c-0.2,0.4-0.8,1.2-1.3,1.8c-0.9,1-1,1.2-0.7,1.4c0.2,0.2,0.7,0.9,1.2,1.6
	c1.5,2.2,2.3,4.8,2.4,7.4c0,0.8-0.2,2.1-0.4,2.9c-0.9,3.4-3.5,5.7-6.8,6.6c-0.7,0.2-2.2,0.4-3.4,0.5c-2.7,0.4-5.5-0.9-7.7-0.2
	c-1.1,0.4-2.4,1.3-2.4,2.5c0,0.3-0.1,0.8-0.3,1.2C1290.5-1085.4,1290.3-1085.2,1290.2-1085.2L1290.2-1085.2z M1304.6-1097.4
	c0.8,0,1.6-0.9,1.6-1.7c0-0.6-0.3-1.3-1-1.3c-0.8,0-1.5,0.8-1.5,1.6C1303.8-1098.2,1304-1097.4,1304.6-1097.4z M1290.7-1102.7
	c0.8,0,1.5-1,1.5-1.8c0-0.6-0.4-1.2-1-1.2c-0.8-0.1-1.5,0.8-1.5,1.6C1289.6-1103.4,1290-1102.7,1290.7-1102.7z M1306.7-1109.5
	c0.1,0,0.7-0.5,1.1-1c0.5-0.6,0.9-1.1,0.9-1.2s-0.5-0.1-1,0c-0.6,0.1-1.2,0.2-1.5,0.3c-0.4,0.1-0.4,0-0.3-2.1l0.2-2.2l-0.6,0.4
	c-0.3,0.2-1.2,0.8-1.9,1.4s-1.3,0.9-1.4,0.8c0-0.1-0.4-0.7-0.7-1.2c-0.4-0.6-0.8-1-0.9-1c-0.2,0-0.4,0.5-0.6,1.1
	c-0.1,0.6-0.3,1.4-0.3,1.7c0,0.5,0.1,0.6,1.2,0.9c0.7,0.2,1.7,0.5,2.4,0.7c0.6,0.3,1.6,0.7,2.1,1.1
	C1306-1109.7,1306.6-1109.5,1306.7-1109.5L1306.7-1109.5z M1287.1-1110.6c-0.2,0-0.9-0.3-1.7-0.6c-0.8-0.4-1.3-0.7-1.3-0.9
	s0.1-0.6,0.3-0.7c0.3-0.2,0.5,0,1.7,0.5c1.2,0.6,1.4,0.8,1.4,1.2C1287.5-1110.9,1287.3-1110.7,1287.1-1110.6L1287.1-1110.6z
	 M1288.8-1112.4c-0.3,0-0.8-0.4-1.7-1.7c-0.8-1.1-1.4-1.9-1.3-2.2c0-0.3,0.4-0.6,0.6-0.6s0.9,0.8,1.6,1.9c0.7,1,1.3,2,1.3,2.2
	C1289.2-1112.6,1289-1112.4,1288.8-1112.4z M1290.9-1113.6c-0.3,0-0.5-0.2-0.6-0.5s-0.1-1-0.2-1.6c0-1,0-1.2,0.5-1.2
	s0.6,0.2,0.7,1.4c0.1,0.7,0.1,1.4,0.1,1.6S1291.1-1113.6,1290.9-1113.6L1290.9-1113.6z"/>
<g>
	<path id="path388-2-8-5-6" class="st1" d="M315.8,168.5l-0.3-13.8c-0.1-29.1-1.9-59.1-23.1-78.4C252.8,41,197.3,35.1,154,36.3
		c-17.4-0.9-34.7,0-48.2,1.4c-13.2,1.4-32.9,2.9-51.4,11c-13.8,6.1-25.1,20.6-34.2,33.7l0,0C0.7,110.5,1.1,151.7,4.3,188.2
		c1.8,20.4,3.8,20.1,6,29.1c3.3,11.8,5.7,21.9,17.9,28.4c6.7,3.6,14.4,5.6,21.8,3.3c10.9-1.1,21.8-16.1,30.6-25.7
		c3.1-3.3,5.5-3.3,8.4-6.1c13.5-10.8,27.4-8.3,40.9-10.2l8.3,0.4l13.4-0.7l24.9,0.4c15.1,0.3,24.7-0.3,39.3,13.5
		c11.3,10.7,27.9,32.3,46.2,32.8c31.2,3.2,40.5-22.6,46.1-42.5C312.4,197,316.3,182.8,315.8,168.5L315.8,168.5z"/>
	<path id="path388-2-8-5-63" class="st2" d="M329.3,155.1l-0.3-13.8c-0.1-29.1-1.9-59.1-23.1-78.4c-39.6-35.3-95.1-41.2-138.4-40
		c-17.4-0.9-34.7,0-48.2,1.4c-13.2,1.4-32.9,2.9-51.4,11c-13.8,6.1-27.2,17.2-36.3,30.2l0,0c-19.4,28.3-19.7,72.5-16.5,109
		c1.8,20.4,3.1,21.1,5.3,30.1c3.3,11.8,8.8,24.7,21,31.2c6.7,3.6,17.2,3.9,24.6,1.6c9.6-18.3,24.2-28.1,34.9-30.4
		c13.5-10.8,32.2-8.7,45.8-10.6h5.2H165h26c15.1,0.3,22.3-0.3,36.9,13.5c11.3,10.7,27.2,32.3,45.5,32.8c31.2,3.2,47.4-24.7,53-44.5
		C330.4,184.3,329.9,169.5,329.3,155.1L329.3,155.1z"/>
	<path id="path398-2-8-8" class="st3" d="M76.7,118.2h6.4v-6h-6.4V118.2z M91.4,104.2v21.9H68.5v-21.9H91.4z M59.8,140.2v-8.1H100
		v8.1H84.2v8.1h-8.4v-8.1H59.8"/>
	<path id="path400-7-0-7" class="st3" d="M145.1,148.4h-8.6v-26.2h8.6v9.1h7.3v8.1h-7.3V148.4z M122.2,171.6v-19.5h8.6v11.4h14.9
		v8.1H122.2z M122.5,138.8c0.8-0.8,1.2-1.7,1.2-2.9c0-1.1-0.4-2.1-1.2-2.9c-0.8-0.8-1.7-1.2-2.8-1.2c-1.1,0-2.1,0.4-2.8,1.2
		c-0.8,0.8-1.2,1.7-1.2,2.9c0,1.1,0.4,2.1,1.2,2.9c0.8,0.8,1.7,1.2,2.8,1.2S121.7,139.6,122.5,138.8z M128.5,127.3
		c2.4,2.4,3.7,5.2,3.7,8.7c0,3.3-1.2,6.2-3.7,8.6c-2.4,2.4-5.4,3.5-8.8,3.5s-6.3-1.2-8.8-3.5c-2.4-2.4-3.7-5.2-3.7-8.6
		c0-3.4,1.2-6.3,3.7-8.7c2.4-2.4,5.4-3.5,8.8-3.5S126.1,124.9,128.5,127.3z M115.1,107.7h9.2v6.3h8.3v8h-26v-8h8.5L115.1,107.7"/>
	<path id="path402-3-8-7" class="st3" d="M164.6,126.1v-21.6h23.9v8H173v5.6h15.5v8h-7.6v6.3h15.9v8.1h-40.2v-8.1h15.8v-6.3
		L164.6,126.1"/>
	<path id="path404-4-7-4" class="st3" d="M227.7,139.4v-8h7.1v-9.1h8.6v26h-8.6v-8.9H227.7z M220.6,171.3V152h8.5v11.3h14.7v8H220.6
		z M208.5,147.2l-6.7-4.5l8.5-12.3h-6.9v-7.7h24.4v7.7h-6.9l8.3,12l-6.5,4.6l-6.9-10.4L208.5,147.2"/>
	<path id="path388-2-8-8-6" class="st3" d="M308.6,187.4l-0.3,5.4c-0.4,6.2-1.5,11-2.8,15.7c-0.1,0.5-0.3,1.1-0.4,1.6l-0.7,2.2
		l-1,2.8c-5.3,15.3-17.7,30.8-32.5,33.5c-22.1,2-31.6-9.1-43.5-21.9c-8.4-11.8-25.5-25.9-49.6-24.5h-26.1h-13.1h-5.2
		c-17-0.1-36.9,0.1-51.8,13c-3.5,3-3.9,3.8-7.1,7.1c-7.6,7.8-13.8,18.4-24,21.6c-5.5,1.7-14.5,0.5-19.4-2.2
		c-8.9-5-14-15.4-17.5-26.6l-1-3.1l-0.5-1.8l-0.6-2.2l-0.9-3.9l-0.5-2.3l-0.6-4.6c-1-8.7-1.4-15.4-1.4-23.4l-0.2-2.3l-0.2-3.1
		l-0.1-2.3c-0.4-8.3,0.1-16.6,0.4-24.9l0.2-2.3l0.8-7.1l0.3-2.3l0.7-5.2l0.9-5.1l0.9-4.3c0.6-3.5,1.5-6.6,2.5-9.6l1.2-3.4l1-2.7
		l0.7-1.6l1.1-2.4l0.9-1.9l1.2-2.3c0.4-0.8,0.8-1.5,1.2-2.3l1.3-2.3c1.2-2.1,1.8-3.1,3.2-5.1c1.1-1.5,2.2-3,3.3-4.5l1.6-1.9l1.9-2.2
		l1.7-1.7l2.3-2.4l1.8-1.6c5.9-5.2,9.5-7.3,16.5-10.3c3.9-1.7,10.9-4.2,14.8-5.5l13.1-2.9c8.5-1.2,11.3-1.3,18.8-2.3
		c5.5-0.6,15.8-1.4,22-1.6H143c2.5,0.1,5-0.1,7.6,0c12.8,0.7,29.7,0.1,42.9,1.6l15.8,2.2c34.6,6.3,57.8,14.4,78.2,33.2
		c15.5,25.9,20.3,47.6,20.5,73v1.3l0.1,2.3l0.1,2.5l0.1,2.3l0.1,2.8l0.1,2.3v0.5v0.8l0.1,2.3v0.5l0.1,2.3l0.1,3.2v2.3v5.2
		L308.6,187.4z M206.9,47.7l-11-1.5L206.9,47.7z M315.8,168.5l-0.3-13.8c-1.7-28.8-4.2-58.4-23.1-78.4C252.8,41,197.3,35.1,154,36.3
		c-17.4-0.9-34.7,0-48.2,1.4c-13.2,1.4-32.9,2.9-51.4,11C40.6,54.8,27.2,65.9,18.1,79l0,0C-1.3,107.1-1.7,151.3,1.5,187.9
		C3.3,208.3,4.6,209,6.8,218c3.3,11.8,8.8,24.7,21,31.2c6.7,3.6,17.2,3.9,24.6,1.6c13-3.2,20.8-16.1,29.6-25.7
		c3.1-3.3,2.4-1.9,5.3-4.7c13.5-10.8,32.2-8.7,45.8-10.6h5.2h13.1h26c15.1,0.3,22.3-0.3,36.9,13.5c11.3,10.7,27.2,32.3,45.5,32.8
		c31.2,3.2,47.4-24.7,53-44.5C316.8,197.6,316.3,182.8,315.8,168.5L315.8,168.5z M7.8,154.6C8,157.1,8,157.1,7.8,154.6"/>
	<path id="rect1481-2" class="st1" d="M264,47.8c-3.3-0.2-7.9,4.4-8,7.9c-0.4,3,2.6,7.8,5.7,7.9c3.5,0.2,8.5-6.1,8.5-9.7
		C270.1,51.1,266.8,47.8,264,47.8z M323.1,69.8c-3.4,0-7.2,4.9-7.3,8.4c0.1,2.6,2.1,7.5,5,7.5c3.2,0,8.6-4.7,8.7-8.4
		C329.5,74.6,326,69.8,323.1,69.8L323.1,69.8z"/>
	<path id="path1534-9" class="st1" d="M298.9,21.2l3.5-16.8l10,10.6l15.3-9.5l-0.5,17.1l14.5-0.7L330.5,35
		C319.1,25.8,311.1,23.7,298.9,21.2z"/>
	<path id="path518-3-8-3" class="st3" d="M280.8,146.5c-4.4-1-9-3.3-11.5-7c-3.3-5.1-3.7-11.3-0.5-14.4c3.2-3,6.5-3.5,10.5-3.2
		c6.6,0.9,10.8,7.1,10.9,13.2c-0.1,4.3-1.9,8-5.7,10C283.2,145.9,281.4,146.5,280.8,146.5L280.8,146.5z M259.5,136.2
		c-0.4,0-1.4-0.7-2.2-1.5c-0.8-0.8-2.1-2.9-2.8-4.7c-4.6-11.4-0.9-23.9,10.5-29c2.1-2.2,21.5-4.3,20.9-8.2c-0.3-0.8-2.5-3.1-4.3-4.5
		c-4.7-3.2-10.1-3.1-15.1-0.7c-5.5,1.8-13.3,12.3-18.5,12c-1-0.1-3.4-2.5-5.3-5.2c-5.3-7.6-7.6-17.6-7.6-25.2
		c-0.1-8.9,2.3-17.5,6.9-24.7c8.3-12.3,20.7-21.1,35.3-24.1c0.8-0.2,5-0.3,9.3-0.4l7.9-0.1l1.2-6.1c0.6-3.3,1.9-7.6,2.8-9.5
		c1.2-2.5,2.3-3.5,4-3.7c1.8-0.2,3.6,0.8,6.9,3.9l4.5,4.2l4.4-3.2c2.4-1.7,5.7-3.8,7.3-4.7c2.2-1.1,3.4-1.3,4.7-0.5
		c1,0.5,2.1,1.8,2.4,2.9s0.3,4.9,0,8.5l-0.7,6.5l3.6-0.6c2-0.3,4.8-0.2,6.2,0.4c1.4,0.5,2.8,1.6,3.1,2.5c0.3,0.8-0.1,2.8-0.8,4.4
		s-3.3,5.1-5.7,7.7c-3.8,4.3-4.1,4.9-2.8,6c0.8,0.7,3.1,3.7,5.2,6.7c6.3,9.4,9.9,20.2,10,31.4c0,3.3-0.8,8.8-1.7,12.2
		c-4,14.4-15.1,24.1-29,28c-2.8,0.8-9.3,1.7-14.4,2c-11.3,1.7-23.3-3.7-32.9-0.9c-4.6,1.8-10.2,5.4-10.4,10.8c0,1.4-0.5,3.6-1.1,4.9
		C260.7,135.2,259.9,136.2,259.5,136.2L259.5,136.2z M321,84.2c3.2,0,6.6-3.6,6.7-7.4c-0.1-2.6-1.3-5.6-4.2-5.6
		c-3.4,0-6.3,3.6-6.4,7C317.3,80.8,318.1,84.1,321,84.2z M261.9,61.8c3.5,0.2,6.5-4.1,6.5-7.7c-0.1-2.7-1.5-5.2-4.4-5.3
		c-3.3-0.2-6.2,3.5-6.3,7C257.3,58.8,258.8,61.8,261.9,61.8z M329.9,33c0.6,0,2.8-2,4.9-4.4s3.8-4.7,3.8-5.2c0-0.4-2-0.5-4.4-0.2
		S329,24,328,24.3c-1.7,0.5-1.7,0-1.1-9.1l0.7-9.5L325,7.4c-1.4,0.9-5.1,3.6-8.1,5.9s-5.7,3.8-5.8,3.2c-0.2-0.5-1.6-2.9-3.1-5.3
		s-3.3-4.3-4-4.3s-1.7,1.9-2.3,4.7c-0.6,2.6-1.1,5.8-1.1,7.2c0,2.3,0.5,2.6,5.1,3.7c2.8,0.7,7.3,2.1,10,3.2s6.8,3.2,9.1,4.6
		C327,31.8,329.3,33,329.9,33L329.9,33z M246.6,28.1c-0.8,0.1-4-1.1-7.2-2.6s-5.6-3-5.6-3.6c0-0.7,0.6-2.5,1.4-3.2
		c1.1-0.9,2.3-0.1,7.3,2.2c5.2,2.4,6.1,3.2,5.8,5C248.1,26.9,247.3,28,246.6,28.1L246.6,28.1z M253.5,20.7c-1.4,0.2-3.2-1.6-7.2-7.4
		c-3.3-4.7-5.7-8.1-5.6-9.3c0.2-1.1,1.6-2.4,2.5-2.4s3.8,3.5,7,8c3.1,4.3,5.6,8.5,5.4,9.3C255.5,19.8,254.5,20.6,253.5,20.7z
		 M262.4,15.3c-1.2,0-2.1-0.8-2.4-2.1c-0.3-1.2-0.6-4.2-0.7-6.7c-0.2-4.4-0.2-5.1,2-5.1c2.1,0,2.5,0.9,3.2,5.9c0.4,3,0.5,6,0.3,6.7
		C264.5,14.8,263.4,15.3,262.4,15.3L262.4,15.3z"/>
</g>
<image style="overflow:visible;enable-background:new    ;" width="631" height="458" xlink:href="C428FED0.jpg"  transform="matrix(0.9978 0 0 0.9978 941.9196 -521.3475)">
</image>
<g>
	<path class="st4" d="M645.6-1197.4c0.8,0,1.6-0.9,1.6-1.7c0-0.6-0.3-1.3-1-1.3c-0.8,0-1.5,0.8-1.5,1.6
		C644.7-1198.2,644.9-1197.4,645.6-1197.4z"/>
	<path class="st4" d="M832.2-1005.7c-0.8-0.1-1.5,0.8-1.5,1.6c-0.1,0.7,0.3,1.4,1,1.4c0.8,0,1.5-1,1.5-1.8
		C833.2-1005.1,832.9-1005.7,832.2-1005.7z"/>
	<path class="st4" d="M639.6-1014c0.1-0.8,0.4-1.8,0.7-2.2c0.3-0.6,0.5-0.8,0.9-0.9c0.4,0,0.8,0.2,1.6,0.9l1.1,1l1-0.7
		c0.6-0.4,1.3-0.9,1.7-1.1c0.5-0.3,0.8-0.3,1.1-0.1c0.2,0.1,0.5,0.4,0.6,0.7s0.1,1.1,0,2l-0.2,1.5l0.9-0.1c0.5-0.1,1.1,0,1.5,0.1
		s0.7,0.4,0.7,0.6c0.1,0.2,0,0.7-0.2,1c-0.2,0.4-0.8,1.2-1.3,1.8c-0.9,1-1,1.2-0.7,1.4c0.2,0.2,0.7,0.9,1.2,1.6
		c1.2,1.8,1.9,3.7,2.2,5.8h172.9v-0.1c0-2.1,0.5-4.1,1.6-5.8c2-2.9,4.9-5,8.3-5.7c0.2,0,1.2-0.1,2.2-0.1h1.2v-176.8
		c-1.6-0.2-3.1-0.5-4.4-0.1c-1.1,0.4-2.4,1.3-2.4,2.5c0,0.3-0.1,0.8-0.3,1.2c-0.1,0.3-0.3,0.6-0.4,0.6l0,0l0,0l0,0
		c-0.1,0-0.3-0.2-0.5-0.3c-0.2-0.2-0.5-0.7-0.7-1.1c-1.1-2.7-0.2-5.6,2.5-6.8c0.5-0.5,5.1-1,4.9-1.9c-0.1-0.2-0.6-0.7-1-1
		c-1.1-0.8-2.4-0.7-3.6-0.2c-1.3,0.4-3.1,2.9-4.3,2.8c-0.2,0-0.8-0.6-1.2-1.2c-1.2-1.7-1.8-4-1.8-5.8H652.5c0.1,0.5,0.1,1.1,0.1,1.6
		c0,0.8-0.2,2.1-0.4,2.9c-0.9,3.4-3.5,5.7-6.8,6.6c-0.7,0.2-2.2,0.4-3.4,0.5c-1.1,0.2-2.2,0.1-3.3-0.1v176.8h0.7L639.6-1014z
		 M833.3-1187.8c0.7-0.7,1.5-0.8,2.5-0.8c1.5,0.2,2.6,1.7,2.6,3.1c0,1-0.5,1.9-1.3,2.4c-0.3,0.2-0.7,0.3-0.9,0.3
		c-1-0.2-2.1-0.8-2.7-1.6C832.7-1185.6,832.6-1187.1,833.3-1187.8z M831.6-1016.9c0.5,0,0.6,0.2,0.7,1.4c0.1,0.7,0.1,1.4,0.1,1.6
		c-0.1,0.2-0.3,0.3-0.6,0.3l0,0c-0.3,0-0.5-0.2-0.6-0.5s-0.1-1-0.2-1.6C831-1016.7,831-1016.9,831.6-1016.9z M737-1083.1
		c-0.3,0.2-0.7,0.3-0.9,0.3c-1-0.2-2.1-0.8-2.7-1.6c-0.8-1.2-0.9-2.7-0.1-3.4c0.7-0.7,1.5-0.8,2.5-0.8c1.5,0.2,2.6,1.7,2.6,3.1
		C738.4-1084.4,737.9-1083.6,737-1083.1z M827.3-1016.8c0.2,0,0.9,0.8,1.6,1.9c0.7,1,1.3,2,1.3,2.2s-0.3,0.4-0.5,0.4
		c-0.3,0-0.8-0.4-1.7-1.7c-0.8-1.1-1.4-1.9-1.3-2.2C826.7-1016.5,827.1-1016.8,827.3-1016.8z M825.4-1012.8c0.3-0.2,0.5,0,1.7,0.5
		c1.2,0.6,1.4,0.8,1.4,1.2c0,0.3-0.2,0.5-0.4,0.5s-0.9-0.3-1.7-0.6c-0.8-0.4-1.3-0.7-1.3-0.9S825.2-1012.7,825.4-1012.8z
		 M737.5-1112.5h1.9l0.3-1.4c0.1-0.8,0.4-1.8,0.7-2.2c0.3-0.6,0.5-0.8,0.9-0.9c0.4,0,0.8,0.2,1.6,0.9l1.1,1l1-0.7
		c0.6-0.4,1.3-0.9,1.7-1.1c0.5-0.3,0.8-0.3,1.1-0.1c0.2,0.1,0.5,0.4,0.6,0.7c0.1,0.3,0.1,1.1,0,2l-0.2,1.5l0.9-0.1
		c0.5-0.1,1.1,0,1.5,0.1s0.7,0.4,0.7,0.6s0,0.7-0.2,1c-0.2,0.4-0.8,1.2-1.3,1.8c-0.9,1-1,1.2-0.7,1.4c0.2,0.2,0.7,0.9,1.2,1.6
		c1.5,2.2,2.3,4.8,2.4,7.4c0,0.8-0.2,2.1-0.4,2.9c-0.9,3.4-3.5,5.7-6.8,6.6c-0.7,0.2-2.2,0.4-3.4,0.5c-2.7,0.4-5.5-0.9-7.7-0.2
		c-1.1,0.4-2.4,1.3-2.4,2.5c0,0.3-0.1,0.8-0.3,1.2c-0.1,0.3-0.3,0.6-0.4,0.6l0,0l0,0l0,0c-0.1,0-0.3-0.2-0.5-0.3
		c-0.2-0.2-0.5-0.7-0.7-1.1c-1.1-2.7-0.2-5.6,2.5-6.8c0.5-0.5,5.1-1,4.9-1.9c-0.1-0.2-0.6-0.7-1-1c-1.1-0.8-2.4-0.7-3.6-0.2
		c-1.3,0.4-3.1,2.9-4.3,2.8c-0.2,0-0.8-0.6-1.2-1.2c-1.2-1.8-1.8-4.1-1.8-5.9c0-2.1,0.5-4.1,1.6-5.8c2-2.9,4.9-5,8.3-5.7
		C735.5-1112.5,736.5-1112.5,737.5-1112.5z M731.6-1116.9c0.5,0,0.6,0.2,0.7,1.4c0.1,0.7,0.1,1.4,0.1,1.6c-0.1,0.2-0.3,0.3-0.6,0.3
		l0,0c-0.3,0-0.5-0.2-0.6-0.5s-0.1-1-0.2-1.6C731-1116.7,731-1116.9,731.6-1116.9z M727.3-1116.8c0.2,0,0.9,0.8,1.6,1.9
		c0.7,1,1.3,2,1.3,2.2s-0.3,0.4-0.5,0.4c-0.3,0-0.8-0.4-1.7-1.7c-0.8-1.1-1.4-1.9-1.3-2.2C726.7-1116.5,727.1-1116.8,727.3-1116.8z
		 M725.4-1112.8c0.3-0.2,0.5,0,1.7,0.5c1.2,0.6,1.4,0.8,1.4,1.2c0,0.3-0.2,0.5-0.4,0.5s-0.9-0.3-1.7-0.6c-0.8-0.4-1.3-0.7-1.3-0.9
		S725.2-1112.7,725.4-1112.8z"/>
	<path class="st4" d="M731.7-1102.7c0.8,0,1.5-1,1.5-1.8c0-0.6-0.4-1.2-1-1.2c-0.8-0.1-1.5,0.8-1.5,1.6
		C730.6-1103.4,731-1102.7,731.7-1102.7z"/>
	<path class="st4" d="M649.7-1011.7c0-0.1-0.5-0.1-1,0c-0.6,0.1-1.2,0.2-1.5,0.3c-0.4,0.1-0.4,0-0.3-2.1l0.2-2.2l-0.6,0.4
		c-0.3,0.2-1.2,0.8-1.9,1.4c-0.7,0.5-1.3,0.9-1.4,0.8c0-0.1-0.4-0.7-0.7-1.2c-0.4-0.6-0.8-1-0.9-1c-0.2,0-0.4,0.5-0.6,1.1
		c-0.1,0.6-0.3,1.4-0.3,1.7c0,0.5,0.1,0.6,1.2,0.9c0.7,0.2,1.7,0.5,2.4,0.7c0.6,0.3,1.6,0.7,2.1,1.1c0.5,0.3,1.1,0.6,1.2,0.6l0,0
		c0.1,0,0.7-0.5,1.1-1S649.7-1011.6,649.7-1011.7z"/>
	<path class="st4" d="M742-1111.9c0.7,0.2,1.7,0.5,2.4,0.7c0.6,0.3,1.6,0.7,2.1,1.1c0.5,0.3,1.1,0.6,1.2,0.6l0,0
		c0.1,0,0.7-0.5,1.1-1s0.9-1.1,0.9-1.2s-0.5-0.1-1,0c-0.6,0.1-1.2,0.2-1.5,0.3c-0.4,0.1-0.4,0-0.3-2.1l0.2-2.2l-0.6,0.4
		c-0.3,0.2-1.2,0.8-1.9,1.4c-0.7,0.5-1.3,0.9-1.4,0.8s-0.4-0.7-0.7-1.2c-0.4-0.6-0.8-1-0.9-1c-0.2,0-0.4,0.5-0.6,1.1
		c-0.1,0.6-0.3,1.4-0.3,1.7C740.8-1112.2,740.9-1112.2,742-1111.9z"/>
	<path class="st4" d="M746.2-1100.5c-0.8,0-1.5,0.8-1.5,1.6c0,0.6,0.2,1.4,0.9,1.4c0.8,0,1.6-0.9,1.6-1.7
		C747.2-1099.8,746.9-1100.5,746.2-1100.5z"/>
	<path class="st0" d="M650.2-1006.6c-0.5-0.7-1-1.4-1.2-1.6c-0.3-0.3-0.2-0.4,0.7-1.4c0.6-0.6,1.2-1.4,1.3-1.8
		c0.2-0.4,0.3-0.8,0.2-1s-0.4-0.5-0.7-0.6s-1-0.2-1.5-0.1l-0.9,0.1l0.2-1.5c0.1-0.8,0.1-1.7,0-2s-0.3-0.6-0.6-0.7
		c-0.3-0.2-0.6-0.1-1.1,0.1c-0.4,0.2-1.1,0.7-1.7,1.1l-1,0.7l-1.1-1c-0.8-0.7-1.2-1-1.6-0.9c-0.4,0-0.7,0.3-0.9,0.9
		c-0.2,0.4-0.5,1.5-0.7,2.2l-0.3,1.4h-0.7v11.7h13.8C652.2-1002.8,651.4-1004.8,650.2-1006.6z M647.7-1009.5L647.7-1009.5
		c-0.1,0-0.7-0.3-1.2-0.6s-1.5-0.8-2.1-1.1s-1.7-0.6-2.4-0.7c-1.1-0.3-1.2-0.3-1.2-0.9c0-0.3,0.1-1.1,0.3-1.7
		c0.2-0.7,0.4-1.1,0.6-1.1c0.2,0,0.6,0.5,0.9,1c0.4,0.6,0.7,1.1,0.7,1.2c0,0.1,0.7-0.2,1.4-0.8c0.7-0.5,1.6-1.2,1.9-1.4l0.6-0.4
		l-0.2,2.2c-0.1,2.1-0.1,2.2,0.3,2.1c0.2-0.1,0.9-0.2,1.5-0.3s1-0.1,1,0s-0.4,0.6-0.9,1.2S647.8-1009.5,647.7-1009.5z"/>
	<path class="st0" d="M727-1106.7c-1.1,1.7-1.7,3.7-1.6,5.8c0,1.8,0.5,4.2,1.8,5.9c0.4,0.6,1,1.2,1.2,1.2c1.2,0.1,3-2.4,4.3-2.8
		c1.2-0.6,2.5-0.6,3.6,0.2c0.4,0.3,1,0.9,1,1c0.1,0.9-4.4,1.4-4.9,1.9c-2.7,1.2-3.6,4.1-2.5,6.8c0.2,0.4,0.5,0.9,0.7,1.1
		s0.4,0.3,0.5,0.3s0.3-0.3,0.4-0.6c0.1-0.3,0.3-0.8,0.3-1.2c0-1.3,1.4-2.1,2.4-2.5c2.2-0.7,5.1,0.6,7.7,0.2c1.2-0.1,2.7-0.3,3.4-0.5
		c3.3-0.9,5.9-3.2,6.8-6.6c0.2-0.8,0.4-2.1,0.4-2.9c0-2.6-0.9-5.2-2.4-7.4c-0.5-0.7-1-1.4-1.2-1.6c-0.3-0.3-0.2-0.4,0.7-1.4
		c0.6-0.6,1.2-1.4,1.3-1.8c0.2-0.4,0.3-0.8,0.2-1s-0.4-0.5-0.7-0.6s-1-0.2-1.5-0.1l-0.9,0.1l0.2-1.5c0.1-0.8,0.1-1.7,0-2
		s-0.3-0.6-0.6-0.7c-0.3-0.2-0.6-0.1-1.1,0.1c-0.4,0.2-1.1,0.7-1.7,1.1l-1,0.7l-1.1-1c-0.8-0.7-1.2-1-1.6-0.9
		c-0.4,0-0.7,0.3-0.9,0.9c-0.2,0.4-0.5,1.5-0.7,2.2l-0.3,1.4h-1.9c-1,0-2,0-2.2,0.1C731.9-1111.7,729-1109.6,727-1106.7z
		 M745.6-1097.4c-0.7,0-0.9-0.8-0.9-1.4c0-0.8,0.7-1.6,1.5-1.6c0.7,0,1,0.7,1,1.3C747.2-1098.3,746.4-1097.4,745.6-1097.4z
		 M741-1114.5c0.2-0.7,0.4-1.1,0.6-1.1c0.2,0,0.6,0.5,0.9,1c0.4,0.6,0.7,1.1,0.7,1.2s0.7-0.2,1.4-0.8c0.7-0.5,1.6-1.2,1.9-1.4
		l0.6-0.4l-0.2,2.2c-0.1,2.1-0.1,2.2,0.3,2.1c0.2-0.1,0.9-0.2,1.5-0.3c0.6-0.1,1-0.1,1,0s-0.4,0.6-0.9,1.2s-1,1-1.1,1l0,0
		c-0.1,0-0.7-0.3-1.2-0.6c-0.5-0.3-1.5-0.8-2.1-1.1c-0.6-0.3-1.7-0.6-2.4-0.7c-1.1-0.3-1.2-0.3-1.2-0.9
		C740.8-1113.1,740.9-1113.9,741-1114.5z M730.7-1104.1c0-0.8,0.7-1.7,1.5-1.6c0.7,0,1,0.6,1,1.2c0,0.8-0.7,1.9-1.5,1.8
		C731-1102.7,730.6-1103.4,730.7-1104.1z"/>
	<path class="st0" d="M731.1-1085.2L731.1-1085.2L731.1-1085.2z"/>
	<path class="st0" d="M735.8-1088.6c-0.9-0.1-1.7,0-2.5,0.8c-0.8,0.7-0.7,2.2,0.1,3.4c0.6,0.9,1.7,1.4,2.7,1.6
		c0.2,0,0.6-0.1,0.9-0.3c0.9-0.5,1.3-1.3,1.3-2.4C738.3-1086.9,737.3-1088.3,735.8-1088.6z"/>
	<path class="st0" d="M729.7-1112.4c0.2,0,0.5-0.2,0.5-0.4c0-0.2-0.5-1.2-1.3-2.2c-0.8-1.1-1.4-1.9-1.6-1.9c-0.2,0-0.6,0.3-0.6,0.6
		c0,0.3,0.5,1.1,1.3,2.2C729-1112.7,729.4-1112.3,729.7-1112.4z"/>
	<path class="st0" d="M731.3-1114.1c0.1,0.3,0.3,0.5,0.6,0.5l0,0c0.2,0,0.5-0.1,0.6-0.3c0.1-0.2,0-0.9-0.1-1.6
		c-0.2-1.2-0.2-1.4-0.7-1.4s-0.5,0.2-0.5,1.2C731.1-1115.1,731.2-1114.4,731.3-1114.1z"/>
	<path class="st0" d="M726.4-1111.2c0.8,0.4,1.5,0.6,1.7,0.6s0.4-0.3,0.4-0.5c0.1-0.4-0.2-0.6-1.4-1.2c-1.2-0.5-1.5-0.7-1.7-0.5
		c-0.2,0.1-0.3,0.6-0.3,0.7S725.6-1111.6,726.4-1111.2z"/>
	<path class="st0" d="M835.3-1012.4c-3.4,0.7-6.4,2.8-8.3,5.7c-1.1,1.7-1.7,3.7-1.6,5.8v0.1h13.3v-11.7h-1.2
		C836.5-1012.5,835.5-1012.5,835.3-1012.4z M831.7-1002.7c-0.7,0-1.1-0.7-1-1.4c0-0.8,0.7-1.7,1.5-1.6c0.7,0,1,0.6,1,1.2
		C833.2-1003.7,832.5-1002.6,831.7-1002.7z"/>
	<path class="st0" d="M826.4-1011.2c0.8,0.4,1.5,0.6,1.7,0.6s0.4-0.3,0.4-0.5c0.1-0.4-0.2-0.6-1.4-1.2c-1.2-0.5-1.5-0.7-1.7-0.5
		c-0.2,0.1-0.3,0.6-0.3,0.7S825.6-1011.6,826.4-1011.2z"/>
	<path class="st0" d="M831.3-1014.1c0.1,0.3,0.3,0.5,0.6,0.5l0,0c0.2,0,0.5-0.1,0.6-0.3s0-0.9-0.1-1.6c-0.2-1.2-0.2-1.4-0.7-1.4
		s-0.5,0.2-0.5,1.2C831.1-1015.1,831.2-1014.4,831.3-1014.1z"/>
	<path class="st0" d="M829.7-1012.4c0.2,0,0.5-0.2,0.5-0.4s-0.5-1.2-1.3-2.2c-0.8-1.1-1.4-1.9-1.6-1.9c-0.2,0-0.6,0.3-0.6,0.6
		s0.5,1.1,1.3,2.2C829-1012.7,829.4-1012.3,829.7-1012.4z"/>
	<path class="st0" d="M642-1189.2c1.2-0.1,2.7-0.3,3.4-0.5c3.3-0.9,5.9-3.2,6.8-6.6c0.2-0.8,0.4-2.1,0.4-2.9c0-0.5-0.1-1.1-0.1-1.6
		h-13.8v11.5C639.8-1189.2,640.9-1189.1,642-1189.2z M646.2-1200.5c0.7,0,1,0.7,1,1.3c0,0.9-0.8,1.7-1.6,1.7c-0.7,0-0.9-0.8-0.9-1.4
		C644.7-1199.7,645.4-1200.5,646.2-1200.5z"/>
	<path class="st0" d="M836.1-1182.8c0.2,0,0.6-0.1,0.9-0.3c0.9-0.5,1.3-1.3,1.3-2.4c0-1.4-1-2.9-2.6-3.1c-0.9-0.1-1.7,0-2.5,0.8
		c-0.8,0.7-0.7,2.2,0.1,3.4C834-1183.6,835.1-1183,836.1-1182.8z"/>
	<path class="st0" d="M831.1-1185.2L831.1-1185.2L831.1-1185.2z"/>
	<path class="st0" d="M828.4-1193.8c1.2,0.1,3-2.4,4.3-2.8c1.2-0.6,2.5-0.6,3.6,0.2c0.4,0.3,1,0.9,1,1c0.1,0.9-4.4,1.4-4.9,1.9
		c-2.7,1.2-3.6,4.1-2.5,6.8c0.2,0.4,0.5,0.9,0.7,1.1s0.4,0.3,0.5,0.3s0.3-0.3,0.4-0.6c0.1-0.3,0.3-0.8,0.3-1.2
		c0-1.3,1.4-2.1,2.4-2.5c1.3-0.4,2.9-0.1,4.4,0.1v-11.5h-13.3c0,1.8,0.6,4,1.8,5.8C827.6-1194.3,828.2-1193.8,828.4-1193.8z"/>
</g>
<g>
	<path class="st4" d="M-17.6-1196.6c0.8,0,1.6-0.9,1.6-1.7c0-0.6-0.3-1.3-1-1.3c-0.8,0-1.5,0.8-1.5,1.6
		C-18.4-1197.4-18.3-1196.7-17.6-1196.6z"/>
	<path class="st4" d="M169-1005c-0.8-0.1-1.5,0.8-1.5,1.6c-0.1,0.7,0.3,1.4,1,1.4c0.8,0,1.5-1,1.5-1.8
		C170-1004.3,169.7-1004.9,169-1005z"/>
	<path class="st4" d="M-23.5-1013.2c0.1-0.8,0.4-1.8,0.7-2.2c0.3-0.6,0.5-0.8,0.9-0.9c0.4,0,0.8,0.2,1.6,0.9l1.1,1l1-0.7
		c0.6-0.4,1.3-0.9,1.7-1.1c0.5-0.3,0.8-0.3,1.1-0.1c0.2,0.1,0.5,0.4,0.6,0.7s0.1,1.1,0,2l-0.2,1.5l0.9-0.1c0.5-0.1,1.1,0,1.5,0.1
		s0.7,0.4,0.7,0.6c0.1,0.2,0,0.7-0.2,1c-0.2,0.4-0.8,1.2-1.3,1.8c-0.9,1-1,1.2-0.7,1.4c0.2,0.2,0.7,0.9,1.2,1.6
		c1.2,1.8,1.9,3.7,2.2,5.8h172.9v-0.1c0-2.1,0.5-4.1,1.6-5.8c2-2.9,4.9-5,8.3-5.7c0.2,0,1.2-0.1,2.2-0.1h1.2v-176.8
		c-1.6-0.2-3.1-0.5-4.4-0.1c-1.1,0.4-2.4,1.3-2.4,2.5c0,0.3-0.1,0.8-0.3,1.2c-0.1,0.3-0.3,0.6-0.4,0.6l0,0l0,0l0,0
		c-0.1,0-0.3-0.2-0.5-0.3c-0.2-0.2-0.5-0.7-0.7-1.1c-1.1-2.7-0.2-5.6,2.5-6.8c0.5-0.5,5.1-1,4.9-1.9c-0.1-0.2-0.6-0.7-1-1
		c-1.1-0.8-2.4-0.7-3.6-0.2c-1.3,0.4-3.1,2.9-4.3,2.8c-0.2,0-0.8-0.6-1.2-1.2c-1.2-1.7-1.8-4-1.8-5.8h-173c0.1,0.5,0.1,1.1,0.1,1.6
		c0,0.8-0.2,2.1-0.4,2.9c-0.9,3.4-3.5,5.7-6.8,6.6c-0.7,0.2-2.2,0.4-3.4,0.5c-1.1,0.2-2.2,0.1-3.3-0.1v176.8h0.7L-23.5-1013.2z
		 M170.2-1187c0.7-0.7,1.5-0.8,2.5-0.8c1.5,0.2,2.6,1.7,2.6,3.1c0,1-0.5,1.9-1.3,2.4c-0.3,0.2-0.7,0.3-0.9,0.3
		c-1-0.2-2.1-0.8-2.7-1.6C169.5-1184.8,169.4-1186.3,170.2-1187z M168.4-1016.1c0.5,0,0.6,0.2,0.7,1.4c0.1,0.7,0.1,1.4,0.1,1.6
		c-0.1,0.2-0.3,0.3-0.6,0.3l0,0c-0.3,0-0.5-0.2-0.6-0.5s-0.1-1-0.2-1.6C167.9-1016,167.9-1016.1,168.4-1016.1z M73.9-1082.3
		c-0.3,0.2-0.7,0.3-0.9,0.3c-1-0.2-2.1-0.8-2.7-1.6c-0.8-1.2-0.9-2.7-0.1-3.4c0.7-0.7,1.5-0.8,2.5-0.8c1.5,0.2,2.6,1.7,2.6,3.1
		C75.2-1083.6,74.7-1082.8,73.9-1082.3z M164.1-1016c0.2,0,0.9,0.8,1.6,1.9c0.7,1,1.3,2,1.3,2.2s-0.3,0.4-0.5,0.4
		c-0.3,0-0.8-0.4-1.7-1.7c-0.8-1.1-1.4-1.9-1.3-2.2C163.6-1015.7,163.9-1016,164.1-1016z M162.2-1012.1c0.3-0.2,0.5,0,1.7,0.5
		c1.2,0.6,1.4,0.8,1.4,1.2c0,0.3-0.2,0.5-0.4,0.5s-0.9-0.3-1.7-0.6c-0.8-0.4-1.3-0.7-1.3-0.9S162-1011.9,162.2-1012.1z M74.3-1111.7
		h1.9l0.3-1.4c0.1-0.8,0.4-1.8,0.7-2.2c0.3-0.6,0.5-0.8,0.9-0.9c0.4,0,0.8,0.2,1.6,0.9l1.1,1l1-0.7c0.6-0.4,1.3-0.9,1.7-1.1
		c0.5-0.3,0.8-0.3,1.1-0.1c0.2,0.1,0.5,0.4,0.6,0.7c0.1,0.3,0.1,1.1,0,2L85-1112l0.9-0.1c0.5-0.1,1.1,0,1.5,0.1s0.7,0.4,0.7,0.6
		c0.1,0.2,0,0.7-0.2,1c-0.2,0.4-0.8,1.2-1.3,1.8c-0.9,1-1,1.2-0.7,1.4c0.2,0.2,0.7,0.9,1.2,1.6c1.5,2.2,2.3,4.8,2.4,7.4
		c0,0.8-0.2,2.1-0.4,2.9c-0.9,3.4-3.5,5.7-6.8,6.6c-0.7,0.2-2.2,0.4-3.4,0.5c-2.7,0.4-5.5-0.9-7.7-0.2c-1.1,0.4-2.4,1.3-2.4,2.5
		c0,0.3-0.1,0.8-0.3,1.2c-0.1,0.3-0.3,0.6-0.4,0.6l0,0l0,0l0,0c-0.1,0-0.3-0.2-0.5-0.3c-0.2-0.2-0.5-0.7-0.7-1.1
		c-1.1-2.7-0.2-5.6,2.5-6.8c0.5-0.5,5.1-1,4.9-1.9c-0.1-0.2-0.6-0.7-1-1c-1.1-0.8-2.4-0.7-3.6-0.2c-1.3,0.4-3.1,2.9-4.3,2.8
		c-0.2,0-0.8-0.6-1.2-1.2c-1.2-1.8-1.8-4.1-1.8-5.9c0-2.1,0.5-4.1,1.6-5.8c2-2.9,4.9-5,8.3-5.7C72.3-1111.7,73.3-1111.7,74.3-1111.7
		z M68.4-1116.1c0.5,0,0.6,0.2,0.7,1.4c0.1,0.7,0.1,1.4,0.1,1.6c-0.1,0.2-0.3,0.3-0.6,0.3l0,0c-0.3,0-0.5-0.2-0.6-0.5
		s-0.1-1-0.2-1.6C67.9-1116,67.9-1116.1,68.4-1116.1z M64.1-1116c0.2,0,0.9,0.8,1.6,1.9c0.7,1,1.3,2,1.3,2.2s-0.3,0.4-0.5,0.4
		c-0.3,0-0.8-0.4-1.7-1.7c-0.8-1.1-1.4-1.9-1.3-2.2C63.6-1115.7,63.9-1116,64.1-1116z M62.2-1112.1c0.3-0.2,0.5,0,1.7,0.5
		c1.2,0.6,1.4,0.8,1.4,1.2c0,0.3-0.2,0.5-0.4,0.5c-0.2,0-0.9-0.3-1.7-0.6c-0.8-0.4-1.3-0.7-1.3-0.9S62-1111.9,62.2-1112.1z"/>
	<path class="st4" d="M68.5-1101.9c0.8,0,1.5-1,1.5-1.8c0-0.6-0.4-1.2-1-1.2c-0.8-0.1-1.5,0.8-1.5,1.6
		C67.4-1102.6,67.8-1101.9,68.5-1101.9z"/>
	<path class="st4" d="M-13.4-1010.9c0-0.1-0.5-0.1-1,0c-0.6,0.1-1.2,0.2-1.5,0.3c-0.4,0.1-0.4,0-0.3-2.1l0.2-2.2l-0.6,0.4
		c-0.3,0.2-1.2,0.8-1.9,1.4c-0.7,0.5-1.3,0.9-1.4,0.8c0-0.1-0.4-0.7-0.7-1.2c-0.4-0.6-0.8-1-0.9-1c-0.2,0-0.4,0.5-0.6,1.1
		c-0.1,0.6-0.3,1.4-0.3,1.7c0,0.5,0.1,0.6,1.2,0.9c0.7,0.2,1.7,0.5,2.4,0.7c0.6,0.3,1.6,0.7,2.1,1.1c0.5,0.3,1.1,0.6,1.2,0.6l0,0
		c0.1,0,0.7-0.5,1.1-1S-13.4-1010.8-13.4-1010.9z"/>
	<path class="st4" d="M78.8-1111.1c0.7,0.2,1.7,0.5,2.4,0.7c0.6,0.3,1.6,0.7,2.1,1.1c0.5,0.3,1.1,0.6,1.2,0.6l0,0
		c0.1,0,0.7-0.5,1.1-1s0.9-1.1,0.9-1.2s-0.5-0.1-1,0c-0.6,0.1-1.2,0.2-1.5,0.3c-0.4,0.1-0.4,0-0.3-2.1l0.2-2.2l-0.6,0.4
		c-0.3,0.2-1.2,0.8-1.9,1.4c-0.7,0.5-1.3,0.9-1.4,0.8s-0.4-0.7-0.7-1.2c-0.4-0.6-0.8-1-0.9-1c-0.2,0-0.4,0.5-0.6,1.1
		c-0.1,0.6-0.3,1.4-0.3,1.7C77.6-1111.5,77.7-1111.4,78.8-1111.1z"/>
	<path class="st4" d="M83-1099.7c-0.8,0-1.5,0.8-1.5,1.6c0,0.6,0.2,1.4,0.9,1.4c0.8,0,1.6-0.9,1.6-1.7
		C84-1099,83.7-1099.7,83-1099.7z"/>
	<path class="st0" d="M-13-1005.8c-0.5-0.7-1-1.4-1.2-1.6c-0.3-0.3-0.2-0.4,0.7-1.4c0.6-0.6,1.2-1.4,1.3-1.8c0.2-0.4,0.3-0.8,0.2-1
		s-0.4-0.5-0.7-0.6s-1-0.2-1.5-0.1l-0.9,0.1l0.2-1.5c0.1-0.8,0.1-1.7,0-2s-0.3-0.6-0.6-0.7c-0.3-0.2-0.6-0.1-1.1,0.1
		c-0.4,0.2-1.1,0.7-1.7,1.1l-1,0.7l-1.1-1c-0.8-0.7-1.2-1-1.6-0.9c-0.4,0-0.7,0.3-0.9,0.9c-0.2,0.4-0.5,1.5-0.7,2.2l-0.3,1.4h-0.7
		v11.7h13.8C-11-1002.1-11.8-1004-13-1005.8z M-15.5-1008.7L-15.5-1008.7c-0.1,0-0.7-0.3-1.2-0.6s-1.5-0.8-2.1-1.1s-1.7-0.6-2.4-0.7
		c-1.1-0.3-1.2-0.3-1.2-0.9c0-0.3,0.1-1.1,0.3-1.7c0.2-0.7,0.4-1.1,0.6-1.1s0.6,0.5,0.9,1c0.4,0.6,0.7,1.1,0.7,1.2
		c0,0.1,0.7-0.2,1.4-0.8c0.7-0.5,1.6-1.2,1.9-1.4l0.6-0.4l-0.2,2.2c-0.1,2.1-0.1,2.2,0.3,2.1c0.2-0.1,0.9-0.2,1.5-0.3s1-0.1,1,0
		s-0.4,0.6-0.9,1.2S-15.3-1008.7-15.5-1008.7z"/>
	<path class="st0" d="M63.8-1106c-1.1,1.7-1.7,3.7-1.6,5.8c0,1.8,0.5,4.2,1.8,5.9c0.4,0.6,1,1.2,1.2,1.2c1.2,0.1,3-2.4,4.3-2.8
		c1.2-0.6,2.5-0.6,3.6,0.2c0.4,0.3,1,0.9,1,1c0.1,0.9-4.4,1.4-4.9,1.9c-2.7,1.2-3.6,4.1-2.5,6.8c0.2,0.4,0.5,0.9,0.7,1.1
		s0.4,0.3,0.5,0.3s0.3-0.3,0.4-0.6c0.1-0.3,0.3-0.8,0.3-1.2c0-1.3,1.4-2.1,2.4-2.5c2.2-0.7,5.1,0.6,7.7,0.2c1.2-0.1,2.7-0.3,3.4-0.5
		c3.3-0.9,5.9-3.2,6.8-6.6c0.2-0.8,0.4-2.1,0.4-2.9c0-2.6-0.9-5.2-2.4-7.4c-0.5-0.7-1-1.4-1.2-1.6c-0.3-0.3-0.2-0.4,0.7-1.4
		c0.6-0.6,1.2-1.4,1.3-1.8c0.2-0.4,0.3-0.8,0.2-1c-0.1-0.2-0.4-0.5-0.7-0.6s-1-0.2-1.5-0.1l-0.9,0.1l0.2-1.5c0.1-0.8,0.1-1.7,0-2
		s-0.3-0.6-0.6-0.7c-0.3-0.2-0.6-0.1-1.1,0.1c-0.4,0.2-1.1,0.7-1.7,1.1l-1,0.7l-1.1-1c-0.8-0.7-1.2-1-1.6-0.9
		c-0.4,0-0.7,0.3-0.9,0.9c-0.2,0.4-0.5,1.5-0.7,2.2l-0.3,1.4h-1.9c-1,0-2,0-2.2,0.1C68.7-1110.9,65.8-1108.9,63.8-1106z
		 M82.4-1096.6c-0.7,0-0.9-0.8-0.9-1.4c0-0.8,0.7-1.6,1.5-1.6c0.7,0,1,0.7,1,1.3C84-1097.5,83.2-1096.6,82.4-1096.6z M77.9-1113.7
		c0.2-0.7,0.4-1.1,0.6-1.1s0.6,0.5,0.9,1c0.4,0.6,0.7,1.1,0.7,1.2s0.7-0.2,1.4-0.8c0.7-0.5,1.6-1.2,1.9-1.4l0.6-0.4l-0.2,2.2
		c-0.1,2.1-0.1,2.2,0.3,2.1c0.2-0.1,0.9-0.2,1.5-0.3c0.6-0.1,1-0.1,1,0s-0.4,0.6-0.9,1.2s-1,1-1.1,1l0,0c-0.1,0-0.7-0.3-1.2-0.6
		c-0.5-0.3-1.5-0.8-2.1-1.1c-0.6-0.3-1.7-0.6-2.4-0.7c-1.1-0.3-1.2-0.3-1.2-0.9C77.6-1112.3,77.7-1113.1,77.9-1113.7z M67.5-1103.3
		c0-0.8,0.7-1.7,1.5-1.6c0.7,0,1,0.6,1,1.2c0,0.8-0.7,1.9-1.5,1.8C67.8-1101.9,67.4-1102.6,67.5-1103.3z"/>
	<path class="st0" d="M67.9-1084.4L67.9-1084.4L67.9-1084.4z"/>
	<path class="st0" d="M72.6-1087.8c-0.9-0.1-1.7,0-2.5,0.8c-0.8,0.7-0.7,2.2,0.1,3.4c0.6,0.9,1.7,1.4,2.7,1.6c0.2,0,0.6-0.1,0.9-0.3
		c0.9-0.5,1.3-1.3,1.3-2.4C75.2-1086.1,74.2-1087.6,72.6-1087.8z"/>
	<path class="st0" d="M66.5-1111.6c0.2,0,0.5-0.2,0.5-0.4c0-0.2-0.5-1.2-1.3-2.2c-0.8-1.1-1.4-1.9-1.6-1.9c-0.2,0-0.6,0.3-0.6,0.6
		c0,0.3,0.5,1.1,1.3,2.2C65.8-1112,66.2-1111.5,66.5-1111.6z"/>
	<path class="st0" d="M68.1-1113.3c0.1,0.3,0.3,0.5,0.6,0.5l0,0c0.2,0,0.5-0.1,0.6-0.3c0.1-0.2,0-0.9-0.1-1.6
		c-0.2-1.2-0.2-1.4-0.7-1.4s-0.5,0.2-0.5,1.2C67.9-1114.3,68-1113.6,68.1-1113.3z"/>
	<path class="st0" d="M63.2-1110.5c0.8,0.4,1.5,0.6,1.7,0.6c0.2,0,0.4-0.3,0.4-0.5c0.1-0.4-0.2-0.6-1.4-1.2
		c-1.2-0.5-1.5-0.7-1.7-0.5c-0.2,0.1-0.3,0.6-0.3,0.7S62.5-1110.8,63.2-1110.5z"/>
	<path class="st0" d="M172.1-1011.6c-3.4,0.7-6.4,2.8-8.3,5.7c-1.1,1.7-1.7,3.7-1.6,5.8v0.1h13.3v-11.7h-1.2
		C173.3-1011.7,172.3-1011.7,172.1-1011.6z M168.5-1001.9c-0.7,0-1.1-0.7-1-1.4c0-0.8,0.7-1.7,1.5-1.6c0.7,0,1,0.6,1,1.2
		C170-1002.9,169.3-1001.9,168.5-1001.9z"/>
	<path class="st0" d="M163.2-1010.5c0.8,0.4,1.5,0.6,1.7,0.6s0.4-0.3,0.4-0.5c0.1-0.4-0.2-0.6-1.4-1.2c-1.2-0.5-1.5-0.7-1.7-0.5
		c-0.2,0.1-0.3,0.6-0.3,0.7S162.5-1010.8,163.2-1010.5z"/>
	<path class="st0" d="M168.1-1013.3c0.1,0.3,0.3,0.5,0.6,0.5l0,0c0.2,0,0.5-0.1,0.6-0.3s0-0.9-0.1-1.6c-0.2-1.2-0.2-1.4-0.7-1.4
		s-0.5,0.2-0.5,1.2C167.9-1014.3,168-1013.6,168.1-1013.3z"/>
	<path class="st0" d="M166.5-1011.6c0.2,0,0.5-0.2,0.5-0.4s-0.5-1.2-1.3-2.2c-0.8-1.1-1.4-1.9-1.6-1.9c-0.2,0-0.6,0.3-0.6,0.6
		s0.5,1.1,1.3,2.2C165.8-1012,166.2-1011.5,166.5-1011.6z"/>
	<path class="st0" d="M-21.2-1188.4c1.2-0.1,2.7-0.3,3.4-0.5c3.3-0.9,5.9-3.2,6.8-6.6c0.2-0.8,0.4-2.1,0.4-2.9
		c0-0.5-0.1-1.1-0.1-1.6h-13.8v11.5C-23.4-1188.4-22.3-1188.3-21.2-1188.4z M-17-1199.7c0.7,0,1,0.7,1,1.3c0,0.9-0.8,1.7-1.6,1.7
		c-0.7,0-0.9-0.8-0.9-1.4C-18.4-1198.9-17.8-1199.7-17-1199.7z"/>
	<path class="st0" d="M173-1182c0.2,0,0.6-0.1,0.9-0.3c0.9-0.5,1.3-1.3,1.3-2.4c0-1.4-1-2.9-2.6-3.1c-0.9-0.1-1.7,0-2.5,0.8
		c-0.8,0.7-0.7,2.2,0.1,3.4C170.9-1182.8,171.9-1182.2,173-1182z"/>
	<path class="st0" d="M167.9-1184.4L167.9-1184.4L167.9-1184.4z"/>
	<path class="st0" d="M165.2-1193c1.2,0.1,3-2.4,4.3-2.8c1.2-0.6,2.5-0.6,3.6,0.2c0.4,0.3,1,0.9,1,1c0.1,0.9-4.4,1.4-4.9,1.9
		c-2.7,1.2-3.6,4.1-2.5,6.8c0.2,0.4,0.5,0.9,0.7,1.1s0.4,0.3,0.5,0.3s0.3-0.3,0.4-0.6c0.1-0.3,0.3-0.8,0.3-1.2
		c0-1.3,1.4-2.1,2.4-2.5c1.3-0.4,2.9-0.1,4.4,0.1v-11.5h-13.3c0,1.8,0.6,4,1.8,5.8C164.4-1193.6,165-1193,165.2-1193z"/>
</g>
<g>
	<path class="st4" d="M182.4-1196.6c0.8,0,1.6-0.9,1.6-1.7c0-0.6-0.3-1.3-1-1.3c-0.8,0-1.5,0.8-1.5,1.6
		C181.6-1197.4,181.7-1196.7,182.4-1196.6z"/>
	<path class="st4" d="M369-1005c-0.8-0.1-1.5,0.8-1.5,1.6c-0.1,0.7,0.3,1.4,1,1.4c0.8,0,1.5-1,1.5-1.8
		C370-1004.3,369.7-1004.9,369-1005z"/>
	<path class="st4" d="M176.5-1013.2c0.1-0.8,0.4-1.8,0.7-2.2c0.3-0.6,0.5-0.8,0.9-0.9c0.4,0,0.8,0.2,1.6,0.9l1.1,1l1-0.7
		c0.6-0.4,1.3-0.9,1.7-1.1c0.5-0.3,0.8-0.3,1.1-0.1c0.2,0.1,0.5,0.4,0.6,0.7s0.1,1.1,0,2l-0.2,1.5l0.9-0.1c0.5-0.1,1.1,0,1.5,0.1
		s0.7,0.4,0.7,0.6c0.1,0.2,0,0.7-0.2,1c-0.2,0.4-0.8,1.2-1.3,1.8c-0.9,1-1,1.2-0.7,1.4c0.2,0.2,0.7,0.9,1.2,1.6
		c1.2,1.8,1.9,3.7,2.2,5.8h172.9v-0.1c0-2.1,0.5-4.1,1.6-5.8c2-2.9,4.9-5,8.3-5.7c0.2,0,1.2-0.1,2.2-0.1h1.2v-176.8
		c-1.6-0.2-3.1-0.5-4.4-0.1c-1.1,0.4-2.4,1.3-2.4,2.5c0,0.3-0.1,0.8-0.3,1.2c-0.1,0.3-0.3,0.6-0.4,0.6l0,0l0,0l0,0
		c-0.1,0-0.3-0.2-0.5-0.3c-0.2-0.2-0.5-0.7-0.7-1.1c-1.1-2.7-0.2-5.6,2.5-6.8c0.5-0.5,5.1-1,4.9-1.9c-0.1-0.2-0.6-0.7-1-1
		c-1.1-0.8-2.4-0.7-3.6-0.2c-1.3,0.4-3.1,2.9-4.3,2.8c-0.2,0-0.8-0.6-1.2-1.2c-1.2-1.7-1.8-4-1.8-5.8h-173c0.1,0.5,0.1,1.1,0.1,1.6
		c0,0.8-0.2,2.1-0.4,2.9c-0.9,3.4-3.5,5.7-6.8,6.6c-0.7,0.2-2.2,0.4-3.4,0.5c-1.1,0.2-2.2,0.1-3.3-0.1v176.8h0.7L176.5-1013.2z
		 M370.2-1187c0.7-0.7,1.5-0.8,2.5-0.8c1.5,0.2,2.6,1.7,2.6,3.1c0,1-0.5,1.9-1.3,2.4c-0.3,0.2-0.7,0.3-0.9,0.3
		c-1-0.2-2.1-0.8-2.7-1.6C369.5-1184.8,369.4-1186.3,370.2-1187z M368.4-1016.1c0.5,0,0.6,0.2,0.7,1.4c0.1,0.7,0.1,1.4,0.1,1.6
		c-0.1,0.2-0.3,0.3-0.6,0.3l0,0c-0.3,0-0.5-0.2-0.6-0.5s-0.1-1-0.2-1.6C367.9-1016,367.9-1016.1,368.4-1016.1z M273.9-1082.3
		c-0.3,0.2-0.7,0.3-0.9,0.3c-1-0.2-2.1-0.8-2.7-1.6c-0.8-1.2-0.9-2.7-0.1-3.4c0.7-0.7,1.5-0.8,2.5-0.8c1.5,0.2,2.6,1.7,2.6,3.1
		C275.2-1083.6,274.7-1082.8,273.9-1082.3z M364.1-1016c0.2,0,0.9,0.8,1.6,1.9c0.7,1,1.3,2,1.3,2.2s-0.3,0.4-0.5,0.4
		c-0.3,0-0.8-0.4-1.7-1.7c-0.8-1.1-1.4-1.9-1.3-2.2C363.6-1015.7,363.9-1016,364.1-1016z M362.2-1012.1c0.3-0.2,0.5,0,1.7,0.5
		c1.2,0.6,1.4,0.8,1.4,1.2c0,0.3-0.2,0.5-0.4,0.5c-0.2,0-0.9-0.3-1.7-0.6c-0.8-0.4-1.3-0.7-1.3-0.9S362-1011.9,362.2-1012.1z
		 M274.3-1111.7h1.9l0.3-1.4c0.1-0.8,0.4-1.8,0.7-2.2c0.3-0.6,0.5-0.8,0.9-0.9c0.4,0,0.8,0.2,1.6,0.9l1.1,1l1-0.7
		c0.6-0.4,1.3-0.9,1.7-1.1c0.5-0.3,0.8-0.3,1.1-0.1c0.2,0.1,0.5,0.4,0.6,0.7c0.1,0.3,0.1,1.1,0,2l-0.2,1.5l0.9-0.1
		c0.5-0.1,1.1,0,1.5,0.1s0.7,0.4,0.7,0.6s0,0.7-0.2,1c-0.2,0.4-0.8,1.2-1.3,1.8c-0.9,1-1,1.2-0.7,1.4c0.2,0.2,0.7,0.9,1.2,1.6
		c1.5,2.2,2.3,4.8,2.4,7.4c0,0.8-0.2,2.1-0.4,2.9c-0.9,3.4-3.5,5.7-6.8,6.6c-0.7,0.2-2.2,0.4-3.4,0.5c-2.7,0.4-5.5-0.9-7.7-0.2
		c-1.1,0.4-2.4,1.3-2.4,2.5c0,0.3-0.1,0.8-0.3,1.2c-0.1,0.3-0.3,0.6-0.4,0.6l0,0l0,0l0,0c-0.1,0-0.3-0.2-0.5-0.3
		c-0.2-0.2-0.5-0.7-0.7-1.1c-1.1-2.7-0.2-5.6,2.5-6.8c0.5-0.5,5.1-1,4.9-1.9c-0.1-0.2-0.6-0.7-1-1c-1.1-0.8-2.4-0.7-3.6-0.2
		c-1.3,0.4-3.1,2.9-4.3,2.8c-0.2,0-0.8-0.6-1.2-1.2c-1.2-1.8-1.8-4.1-1.8-5.9c0-2.1,0.5-4.1,1.6-5.8c2-2.9,4.9-5,8.3-5.7
		C272.3-1111.7,273.3-1111.7,274.3-1111.7z M268.4-1116.1c0.5,0,0.6,0.2,0.7,1.4c0.1,0.7,0.1,1.4,0.1,1.6c-0.1,0.2-0.3,0.3-0.6,0.3
		l0,0c-0.3,0-0.5-0.2-0.6-0.5s-0.1-1-0.2-1.6C267.9-1116,267.9-1116.1,268.4-1116.1z M264.1-1116c0.2,0,0.9,0.8,1.6,1.9
		c0.7,1,1.3,2,1.3,2.2s-0.3,0.4-0.5,0.4c-0.3,0-0.8-0.4-1.7-1.7c-0.8-1.1-1.4-1.9-1.3-2.2C263.6-1115.7,263.9-1116,264.1-1116z
		 M262.2-1112.1c0.3-0.2,0.5,0,1.7,0.5c1.2,0.6,1.4,0.8,1.4,1.2c0,0.3-0.2,0.5-0.4,0.5c-0.2,0-0.9-0.3-1.7-0.6
		c-0.8-0.4-1.3-0.7-1.3-0.9S262-1111.9,262.2-1112.1z"/>
	<path class="st4" d="M268.5-1101.9c0.8,0,1.5-1,1.5-1.8c0-0.6-0.4-1.2-1-1.2c-0.8-0.1-1.5,0.8-1.5,1.6
		C267.4-1102.6,267.8-1101.9,268.5-1101.9z"/>
	<path class="st4" d="M186.6-1010.9c0-0.1-0.5-0.1-1,0c-0.6,0.1-1.2,0.2-1.5,0.3c-0.4,0.1-0.4,0-0.3-2.1l0.2-2.2l-0.6,0.4
		c-0.3,0.2-1.2,0.8-1.9,1.4c-0.7,0.5-1.3,0.9-1.4,0.8c0-0.1-0.4-0.7-0.7-1.2c-0.4-0.6-0.8-1-0.9-1c-0.2,0-0.4,0.5-0.6,1.1
		c-0.1,0.6-0.3,1.4-0.3,1.7c0,0.5,0.1,0.6,1.2,0.9c0.7,0.2,1.7,0.5,2.4,0.7c0.6,0.3,1.6,0.7,2.1,1.1c0.5,0.3,1.1,0.6,1.2,0.6l0,0
		c0.1,0,0.7-0.5,1.1-1S186.6-1010.8,186.6-1010.9z"/>
	<path class="st4" d="M278.8-1111.1c0.7,0.2,1.7,0.5,2.4,0.7c0.6,0.3,1.6,0.7,2.1,1.1c0.5,0.3,1.1,0.6,1.2,0.6l0,0
		c0.1,0,0.7-0.5,1.1-1s0.9-1.1,0.9-1.2s-0.5-0.1-1,0c-0.6,0.1-1.2,0.2-1.5,0.3c-0.4,0.1-0.4,0-0.3-2.1l0.2-2.2l-0.6,0.4
		c-0.3,0.2-1.2,0.8-1.9,1.4c-0.7,0.5-1.3,0.9-1.4,0.8s-0.4-0.7-0.7-1.2c-0.4-0.6-0.8-1-0.9-1c-0.2,0-0.4,0.5-0.6,1.1
		c-0.1,0.6-0.3,1.4-0.3,1.7C277.6-1111.5,277.7-1111.4,278.8-1111.1z"/>
	<path class="st4" d="M283-1099.7c-0.8,0-1.5,0.8-1.5,1.6c0,0.6,0.2,1.4,0.9,1.4c0.8,0,1.6-0.9,1.6-1.7
		C284-1099,283.7-1099.7,283-1099.7z"/>
	<path class="st0" d="M187-1005.8c-0.5-0.7-1-1.4-1.2-1.6c-0.3-0.3-0.2-0.4,0.7-1.4c0.6-0.6,1.2-1.4,1.3-1.8c0.2-0.4,0.3-0.8,0.2-1
		s-0.4-0.5-0.7-0.6s-1-0.2-1.5-0.1l-0.9,0.1l0.2-1.5c0.1-0.8,0.1-1.7,0-2s-0.3-0.6-0.6-0.7c-0.3-0.2-0.6-0.1-1.1,0.1
		c-0.4,0.2-1.1,0.7-1.7,1.1l-1,0.7l-1.1-1c-0.8-0.7-1.2-1-1.6-0.9c-0.4,0-0.7,0.3-0.9,0.9c-0.2,0.4-0.5,1.5-0.7,2.2l-0.3,1.4h-0.7
		v11.7h13.8C189-1002.1,188.2-1004,187-1005.8z M184.5-1008.7L184.5-1008.7c-0.1,0-0.7-0.3-1.2-0.6s-1.5-0.8-2.1-1.1
		s-1.7-0.6-2.4-0.7c-1.1-0.3-1.2-0.3-1.2-0.9c0-0.3,0.1-1.1,0.3-1.7c0.2-0.7,0.4-1.1,0.6-1.1c0.2,0,0.6,0.5,0.9,1
		c0.4,0.6,0.7,1.1,0.7,1.2c0,0.1,0.7-0.2,1.4-0.8c0.7-0.5,1.6-1.2,1.9-1.4l0.6-0.4l-0.2,2.2c-0.1,2.1-0.1,2.2,0.3,2.1
		c0.2-0.1,0.9-0.2,1.5-0.3s1-0.1,1,0s-0.4,0.6-0.9,1.2S184.7-1008.7,184.5-1008.7z"/>
	<path class="st0" d="M263.8-1106c-1.1,1.7-1.7,3.7-1.6,5.8c0,1.8,0.5,4.2,1.8,5.9c0.4,0.6,1,1.2,1.2,1.2c1.2,0.1,3-2.4,4.3-2.8
		c1.2-0.6,2.5-0.6,3.6,0.2c0.4,0.3,1,0.9,1,1c0.1,0.9-4.4,1.4-4.9,1.9c-2.7,1.2-3.6,4.1-2.5,6.8c0.2,0.4,0.5,0.9,0.7,1.1
		s0.4,0.3,0.5,0.3s0.3-0.3,0.4-0.6c0.1-0.3,0.3-0.8,0.3-1.2c0-1.3,1.4-2.1,2.4-2.5c2.2-0.7,5.1,0.6,7.7,0.2c1.2-0.1,2.7-0.3,3.4-0.5
		c3.3-0.9,5.9-3.2,6.8-6.6c0.2-0.8,0.4-2.1,0.4-2.9c0-2.6-0.9-5.2-2.4-7.4c-0.5-0.7-1-1.4-1.2-1.6c-0.3-0.3-0.2-0.4,0.7-1.4
		c0.6-0.6,1.2-1.4,1.3-1.8c0.2-0.4,0.3-0.8,0.2-1s-0.4-0.5-0.7-0.6s-1-0.2-1.5-0.1l-0.9,0.1l0.2-1.5c0.1-0.8,0.1-1.7,0-2
		s-0.3-0.6-0.6-0.7c-0.3-0.2-0.6-0.1-1.1,0.1c-0.4,0.2-1.1,0.7-1.7,1.1l-1,0.7l-1.1-1c-0.8-0.7-1.2-1-1.6-0.9
		c-0.4,0-0.7,0.3-0.9,0.9c-0.2,0.4-0.5,1.5-0.7,2.2l-0.3,1.4h-1.9c-1,0-2,0-2.2,0.1C268.7-1110.9,265.8-1108.9,263.8-1106z
		 M282.4-1096.6c-0.7,0-0.9-0.8-0.9-1.4c0-0.8,0.7-1.6,1.5-1.6c0.7,0,1,0.7,1,1.3C284-1097.5,283.2-1096.6,282.4-1096.6z
		 M277.9-1113.7c0.2-0.7,0.4-1.1,0.6-1.1s0.6,0.5,0.9,1c0.4,0.6,0.7,1.1,0.7,1.2s0.7-0.2,1.4-0.8c0.7-0.5,1.6-1.2,1.9-1.4l0.6-0.4
		l-0.2,2.2c-0.1,2.1-0.1,2.2,0.3,2.1c0.2-0.1,0.9-0.2,1.5-0.3c0.6-0.1,1-0.1,1,0s-0.4,0.6-0.9,1.2s-1,1-1.1,1l0,0
		c-0.1,0-0.7-0.3-1.2-0.6c-0.5-0.3-1.5-0.8-2.1-1.1c-0.6-0.3-1.7-0.6-2.4-0.7c-1.1-0.3-1.2-0.3-1.2-0.9
		C277.6-1112.3,277.7-1113.1,277.9-1113.7z M267.5-1103.3c0-0.8,0.7-1.7,1.5-1.6c0.7,0,1,0.6,1,1.2c0,0.8-0.7,1.9-1.5,1.8
		C267.8-1101.9,267.4-1102.6,267.5-1103.3z"/>
	<path class="st0" d="M267.9-1084.4L267.9-1084.4L267.9-1084.4z"/>
	<path class="st0" d="M272.6-1087.8c-0.9-0.1-1.7,0-2.5,0.8c-0.8,0.7-0.7,2.2,0.1,3.4c0.6,0.9,1.7,1.4,2.7,1.6
		c0.2,0,0.6-0.1,0.9-0.3c0.9-0.5,1.3-1.3,1.3-2.4C275.2-1086.1,274.2-1087.6,272.6-1087.8z"/>
	<path class="st0" d="M266.5-1111.6c0.2,0,0.5-0.2,0.5-0.4c0-0.2-0.5-1.2-1.3-2.2c-0.8-1.1-1.4-1.9-1.6-1.9s-0.6,0.3-0.6,0.6
		c0,0.3,0.5,1.1,1.3,2.2C265.8-1112,266.2-1111.5,266.5-1111.6z"/>
	<path class="st0" d="M268.1-1113.3c0.1,0.3,0.3,0.5,0.6,0.5l0,0c0.2,0,0.5-0.1,0.6-0.3c0.1-0.2,0-0.9-0.1-1.6
		c-0.2-1.2-0.2-1.4-0.7-1.4s-0.5,0.2-0.5,1.2C267.9-1114.3,268-1113.6,268.1-1113.3z"/>
	<path class="st0" d="M263.2-1110.5c0.8,0.4,1.5,0.6,1.7,0.6s0.4-0.3,0.4-0.5c0.1-0.4-0.2-0.6-1.4-1.2c-1.2-0.5-1.5-0.7-1.7-0.5
		c-0.2,0.1-0.3,0.6-0.3,0.7S262.5-1110.8,263.2-1110.5z"/>
	<path class="st0" d="M372.1-1011.6c-3.4,0.7-6.4,2.8-8.3,5.7c-1.1,1.7-1.7,3.7-1.6,5.8v0.1h13.3v-11.7h-1.2
		C373.3-1011.7,372.3-1011.7,372.1-1011.6z M368.5-1001.9c-0.7,0-1.1-0.7-1-1.4c0-0.8,0.7-1.7,1.5-1.6c0.7,0,1,0.6,1,1.2
		C370-1002.9,369.3-1001.9,368.5-1001.9z"/>
	<path class="st0" d="M363.2-1010.5c0.8,0.4,1.5,0.6,1.7,0.6s0.4-0.3,0.4-0.5c0.1-0.4-0.2-0.6-1.4-1.2c-1.2-0.5-1.5-0.7-1.7-0.5
		c-0.2,0.1-0.3,0.6-0.3,0.7S362.5-1010.8,363.2-1010.5z"/>
	<path class="st0" d="M368.1-1013.3c0.1,0.3,0.3,0.5,0.6,0.5l0,0c0.2,0,0.5-0.1,0.6-0.3s0-0.9-0.1-1.6c-0.2-1.2-0.2-1.4-0.7-1.4
		s-0.5,0.2-0.5,1.2C367.9-1014.3,368-1013.6,368.1-1013.3z"/>
	<path class="st0" d="M366.5-1011.6c0.2,0,0.5-0.2,0.5-0.4s-0.5-1.2-1.3-2.2c-0.8-1.1-1.4-1.9-1.6-1.9s-0.6,0.3-0.6,0.6
		s0.5,1.1,1.3,2.2C365.8-1012,366.2-1011.5,366.5-1011.6z"/>
	<path class="st0" d="M178.8-1188.4c1.2-0.1,2.7-0.3,3.4-0.5c3.3-0.9,5.9-3.2,6.8-6.6c0.2-0.8,0.4-2.1,0.4-2.9
		c0-0.5-0.1-1.1-0.1-1.6h-13.8v11.5C176.6-1188.4,177.7-1188.3,178.8-1188.4z M183-1199.7c0.7,0,1,0.7,1,1.3c0,0.9-0.8,1.7-1.6,1.7
		c-0.7,0-0.9-0.8-0.9-1.4C181.6-1198.9,182.2-1199.7,183-1199.7z"/>
	<path class="st0" d="M373-1182c0.2,0,0.6-0.1,0.9-0.3c0.9-0.5,1.3-1.3,1.3-2.4c0-1.4-1-2.9-2.6-3.1c-0.9-0.1-1.7,0-2.5,0.8
		c-0.8,0.7-0.7,2.2,0.1,3.4C370.9-1182.8,371.9-1182.2,373-1182z"/>
	<path class="st0" d="M367.9-1184.4L367.9-1184.4L367.9-1184.4z"/>
	<path class="st0" d="M365.2-1193c1.2,0.1,3-2.4,4.3-2.8c1.2-0.6,2.5-0.6,3.6,0.2c0.4,0.3,1,0.9,1,1c0.1,0.9-4.4,1.4-4.9,1.9
		c-2.7,1.2-3.6,4.1-2.5,6.8c0.2,0.4,0.5,0.9,0.7,1.1s0.4,0.3,0.5,0.3s0.3-0.3,0.4-0.6c0.1-0.3,0.3-0.8,0.3-1.2
		c0-1.3,1.4-2.1,2.4-2.5c1.3-0.4,2.9-0.1,4.4,0.1v-11.5h-13.3c0,1.8,0.6,4,1.8,5.8C364.4-1193.6,365-1193,365.2-1193z"/>
</g>
<g>
	<path class="st4" d="M-17.6-1396.6c0.8,0,1.6-0.9,1.6-1.7c0-0.6-0.3-1.3-1-1.3c-0.8,0-1.5,0.8-1.5,1.6
		C-18.4-1397.4-18.3-1396.7-17.6-1396.6z"/>
	<path class="st4" d="M169-1205c-0.8-0.1-1.5,0.8-1.5,1.6c-0.1,0.7,0.3,1.4,1,1.4c0.8,0,1.5-1,1.5-1.8
		C170-1204.3,169.7-1204.9,169-1205z"/>
	<path class="st4" d="M-23.5-1213.2c0.1-0.8,0.4-1.8,0.7-2.2c0.3-0.6,0.5-0.8,0.9-0.9c0.4,0,0.8,0.2,1.6,0.9l1.1,1l1-0.7
		c0.6-0.4,1.3-0.9,1.7-1.1c0.5-0.3,0.8-0.3,1.1-0.1c0.2,0.1,0.5,0.4,0.6,0.7c0.1,0.3,0.1,1.1,0,2l-0.2,1.5l0.9-0.1
		c0.5-0.1,1.1,0,1.5,0.1s0.7,0.4,0.7,0.6c0.1,0.2,0,0.7-0.2,1c-0.2,0.4-0.8,1.2-1.3,1.8c-0.9,1-1,1.2-0.7,1.4
		c0.2,0.2,0.7,0.9,1.2,1.6c1.2,1.8,1.9,3.7,2.2,5.8h172.9v-0.1c0-2.1,0.5-4.1,1.6-5.8c2-2.9,4.9-5,8.3-5.7c0.2,0,1.2-0.1,2.2-0.1
		h1.2v-176.8c-1.6-0.2-3.1-0.5-4.4-0.1c-1.1,0.4-2.4,1.3-2.4,2.5c0,0.3-0.1,0.8-0.3,1.2c-0.1,0.3-0.3,0.6-0.4,0.6l0,0l0,0l0,0
		c-0.1,0-0.3-0.2-0.5-0.3c-0.2-0.2-0.5-0.7-0.7-1.1c-1.1-2.7-0.2-5.6,2.5-6.8c0.5-0.5,5.1-1,4.9-1.9c-0.1-0.2-0.6-0.7-1-1
		c-1.1-0.8-2.4-0.7-3.6-0.2c-1.3,0.4-3.1,2.9-4.3,2.8c-0.2,0-0.8-0.6-1.2-1.2c-1.2-1.7-1.8-4-1.8-5.8h-173c0.1,0.5,0.1,1.1,0.1,1.6
		c0,0.8-0.2,2.1-0.4,2.9c-0.9,3.4-3.5,5.7-6.8,6.6c-0.7,0.2-2.2,0.4-3.4,0.5c-1.1,0.2-2.2,0.1-3.3-0.1v176.8h0.7L-23.5-1213.2z
		 M170.2-1387c0.7-0.7,1.5-0.8,2.5-0.8c1.5,0.2,2.6,1.7,2.6,3.1c0,1-0.5,1.9-1.3,2.4c-0.3,0.2-0.7,0.3-0.9,0.3
		c-1-0.2-2.1-0.8-2.7-1.6C169.5-1384.8,169.4-1386.3,170.2-1387z M168.4-1216.1c0.5,0,0.6,0.2,0.7,1.4c0.1,0.7,0.1,1.4,0.1,1.6
		c-0.1,0.2-0.3,0.3-0.6,0.3l0,0c-0.3,0-0.5-0.2-0.6-0.5s-0.1-1-0.2-1.6C167.9-1216,167.9-1216.1,168.4-1216.1z M73.9-1282.3
		c-0.3,0.2-0.7,0.3-0.9,0.3c-1-0.2-2.1-0.8-2.7-1.6c-0.8-1.2-0.9-2.7-0.1-3.4c0.7-0.7,1.5-0.8,2.5-0.8c1.5,0.2,2.6,1.7,2.6,3.1
		C75.2-1283.6,74.7-1282.8,73.9-1282.3z M164.1-1216c0.2,0,0.9,0.8,1.6,1.9c0.7,1,1.3,2,1.3,2.2s-0.3,0.4-0.5,0.4
		c-0.3,0-0.8-0.4-1.7-1.7c-0.8-1.1-1.4-1.9-1.3-2.2C163.6-1215.7,163.9-1216,164.1-1216z M162.2-1212.1c0.3-0.2,0.5,0,1.7,0.5
		c1.2,0.6,1.4,0.8,1.4,1.2c0,0.3-0.2,0.5-0.4,0.5s-0.9-0.3-1.7-0.6c-0.8-0.4-1.3-0.7-1.3-0.9S162-1211.9,162.2-1212.1z M74.3-1311.7
		h1.9l0.3-1.4c0.1-0.8,0.4-1.8,0.7-2.2c0.3-0.6,0.5-0.8,0.9-0.9c0.4,0,0.8,0.2,1.6,0.9l1.1,1l1-0.7c0.6-0.4,1.3-0.9,1.7-1.1
		c0.5-0.3,0.8-0.3,1.1-0.1c0.2,0.1,0.5,0.4,0.6,0.7c0.1,0.3,0.1,1.1,0,2L85-1312l0.9-0.1c0.5-0.1,1.1,0,1.5,0.1s0.7,0.4,0.7,0.6
		c0.1,0.2,0,0.7-0.2,1c-0.2,0.4-0.8,1.2-1.3,1.8c-0.9,1-1,1.2-0.7,1.4c0.2,0.2,0.7,0.9,1.2,1.6c1.5,2.2,2.3,4.8,2.4,7.4
		c0,0.8-0.2,2.1-0.4,2.9c-0.9,3.4-3.5,5.7-6.8,6.6c-0.7,0.2-2.2,0.4-3.4,0.5c-2.7,0.4-5.5-0.9-7.7-0.2c-1.1,0.4-2.4,1.3-2.4,2.5
		c0,0.3-0.1,0.8-0.3,1.2c-0.1,0.3-0.3,0.6-0.4,0.6l0,0l0,0l0,0c-0.1,0-0.3-0.2-0.5-0.3c-0.2-0.2-0.5-0.7-0.7-1.1
		c-1.1-2.7-0.2-5.6,2.5-6.8c0.5-0.5,5.1-1,4.9-1.9c-0.1-0.2-0.6-0.7-1-1c-1.1-0.8-2.4-0.7-3.6-0.2c-1.3,0.4-3.1,2.9-4.3,2.8
		c-0.2,0-0.8-0.6-1.2-1.2c-1.2-1.8-1.8-4.1-1.8-5.9c0-2.1,0.5-4.1,1.6-5.8c2-2.9,4.9-5,8.3-5.7C72.3-1311.7,73.3-1311.7,74.3-1311.7
		z M68.4-1316.1c0.5,0,0.6,0.2,0.7,1.4c0.1,0.7,0.1,1.4,0.1,1.6c-0.1,0.2-0.3,0.3-0.6,0.3l0,0c-0.3,0-0.5-0.2-0.6-0.5
		s-0.1-1-0.2-1.6C67.9-1316,67.9-1316.1,68.4-1316.1z M64.1-1316c0.2,0,0.9,0.8,1.6,1.9c0.7,1,1.3,2,1.3,2.2s-0.3,0.4-0.5,0.4
		c-0.3,0-0.8-0.4-1.7-1.7c-0.8-1.1-1.4-1.9-1.3-2.2C63.6-1315.7,63.9-1316,64.1-1316z M62.2-1312.1c0.3-0.2,0.5,0,1.7,0.5
		c1.2,0.6,1.4,0.8,1.4,1.2c0,0.3-0.2,0.5-0.4,0.5c-0.2,0-0.9-0.3-1.7-0.6c-0.8-0.4-1.3-0.7-1.3-0.9S62-1311.9,62.2-1312.1z"/>
	<path class="st4" d="M68.5-1301.9c0.8,0,1.5-1,1.5-1.8c0-0.6-0.4-1.2-1-1.2c-0.8-0.1-1.5,0.8-1.5,1.6
		C67.4-1302.6,67.8-1301.9,68.5-1301.9z"/>
	<path class="st4" d="M-13.4-1210.9c0-0.1-0.5-0.1-1,0c-0.6,0.1-1.2,0.2-1.5,0.3c-0.4,0.1-0.4,0-0.3-2.1l0.2-2.2l-0.6,0.4
		c-0.3,0.2-1.2,0.8-1.9,1.4c-0.7,0.5-1.3,0.9-1.4,0.8c0-0.1-0.4-0.7-0.7-1.2c-0.4-0.6-0.8-1-0.9-1c-0.2,0-0.4,0.5-0.6,1.1
		c-0.1,0.6-0.3,1.4-0.3,1.7c0,0.5,0.1,0.6,1.2,0.9c0.7,0.2,1.7,0.5,2.4,0.7c0.6,0.3,1.6,0.7,2.1,1.1c0.5,0.3,1.1,0.6,1.2,0.6l0,0
		c0.1,0,0.7-0.5,1.1-1S-13.4-1210.8-13.4-1210.9z"/>
	<path class="st4" d="M78.8-1311.1c0.7,0.2,1.7,0.5,2.4,0.7c0.6,0.3,1.6,0.7,2.1,1.1c0.5,0.3,1.1,0.6,1.2,0.6l0,0
		c0.1,0,0.7-0.5,1.1-1s0.9-1.1,0.9-1.2s-0.5-0.1-1,0c-0.6,0.1-1.2,0.2-1.5,0.3c-0.4,0.1-0.4,0-0.3-2.1l0.2-2.2l-0.6,0.4
		c-0.3,0.2-1.2,0.8-1.9,1.4c-0.7,0.5-1.3,0.9-1.4,0.8s-0.4-0.7-0.7-1.2c-0.4-0.6-0.8-1-0.9-1c-0.2,0-0.4,0.5-0.6,1.1
		c-0.1,0.6-0.3,1.4-0.3,1.7C77.6-1311.5,77.7-1311.4,78.8-1311.1z"/>
	<path class="st4" d="M83-1299.7c-0.8,0-1.5,0.8-1.5,1.6c0,0.6,0.2,1.4,0.9,1.4c0.8,0,1.6-0.9,1.6-1.7
		C84-1299,83.7-1299.7,83-1299.7z"/>
	<path class="st0" d="M-13-1205.8c-0.5-0.7-1-1.4-1.2-1.6c-0.3-0.3-0.2-0.4,0.7-1.4c0.6-0.6,1.2-1.4,1.3-1.8c0.2-0.4,0.3-0.8,0.2-1
		s-0.4-0.5-0.7-0.6s-1-0.2-1.5-0.1l-0.9,0.1l0.2-1.5c0.1-0.8,0.1-1.7,0-2s-0.3-0.6-0.6-0.7c-0.3-0.2-0.6-0.1-1.1,0.1
		c-0.4,0.2-1.1,0.7-1.7,1.1l-1,0.7l-1.1-1c-0.8-0.7-1.2-1-1.6-0.9c-0.4,0-0.7,0.3-0.9,0.9c-0.2,0.4-0.5,1.5-0.7,2.2l-0.3,1.4h-0.7
		v11.7h13.8C-11-1202.1-11.8-1204-13-1205.8z M-15.5-1208.7L-15.5-1208.7c-0.1,0-0.7-0.3-1.2-0.6c-0.5-0.3-1.5-0.8-2.1-1.1
		c-0.6-0.3-1.7-0.6-2.4-0.7c-1.1-0.3-1.2-0.3-1.2-0.9c0-0.3,0.1-1.1,0.3-1.7c0.2-0.7,0.4-1.1,0.6-1.1s0.6,0.5,0.9,1
		c0.4,0.6,0.7,1.1,0.7,1.2s0.7-0.2,1.4-0.8c0.7-0.5,1.6-1.2,1.9-1.4l0.6-0.4l-0.2,2.2c-0.1,2.1-0.1,2.2,0.3,2.1
		c0.2-0.1,0.9-0.2,1.5-0.3c0.6-0.1,1-0.1,1,0s-0.4,0.6-0.9,1.2S-15.3-1208.7-15.5-1208.7z"/>
	<path class="st0" d="M63.8-1306c-1.1,1.7-1.7,3.7-1.6,5.8c0,1.8,0.5,4.2,1.8,5.9c0.4,0.6,1,1.2,1.2,1.2c1.2,0.1,3-2.4,4.3-2.8
		c1.2-0.6,2.5-0.6,3.6,0.2c0.4,0.3,1,0.9,1,1c0.1,0.9-4.4,1.4-4.9,1.9c-2.7,1.2-3.6,4.1-2.5,6.8c0.2,0.4,0.5,0.9,0.7,1.1
		s0.4,0.3,0.5,0.3s0.3-0.3,0.4-0.6c0.1-0.3,0.3-0.8,0.3-1.2c0-1.3,1.4-2.1,2.4-2.5c2.2-0.7,5.1,0.6,7.7,0.2c1.2-0.1,2.7-0.3,3.4-0.5
		c3.3-0.9,5.9-3.2,6.8-6.6c0.2-0.8,0.4-2.1,0.4-2.9c0-2.6-0.9-5.2-2.4-7.4c-0.5-0.7-1-1.4-1.2-1.6c-0.3-0.3-0.2-0.4,0.7-1.4
		c0.6-0.6,1.2-1.4,1.3-1.8c0.2-0.4,0.3-0.8,0.2-1c-0.1-0.2-0.4-0.5-0.7-0.6s-1-0.2-1.5-0.1l-0.9,0.1l0.2-1.5c0.1-0.8,0.1-1.7,0-2
		s-0.3-0.6-0.6-0.7c-0.3-0.2-0.6-0.1-1.1,0.1c-0.4,0.2-1.1,0.7-1.7,1.1l-1,0.7l-1.1-1c-0.8-0.7-1.2-1-1.6-0.9
		c-0.4,0-0.7,0.3-0.9,0.9c-0.2,0.4-0.5,1.5-0.7,2.2l-0.3,1.4h-1.9c-1,0-2,0-2.2,0.1C68.7-1310.9,65.8-1308.9,63.8-1306z
		 M82.4-1296.6c-0.7,0-0.9-0.8-0.9-1.4c0-0.8,0.7-1.6,1.5-1.6c0.7,0,1,0.7,1,1.3C84-1297.5,83.2-1296.6,82.4-1296.6z M77.9-1313.7
		c0.2-0.7,0.4-1.1,0.6-1.1s0.6,0.5,0.9,1c0.4,0.6,0.7,1.1,0.7,1.2s0.7-0.2,1.4-0.8c0.7-0.5,1.6-1.2,1.9-1.4l0.6-0.4l-0.2,2.2
		c-0.1,2.1-0.1,2.2,0.3,2.1c0.2-0.1,0.9-0.2,1.5-0.3c0.6-0.1,1-0.1,1,0s-0.4,0.6-0.9,1.2s-1,1-1.1,1l0,0c-0.1,0-0.7-0.3-1.2-0.6
		c-0.5-0.3-1.5-0.8-2.1-1.1c-0.6-0.3-1.7-0.6-2.4-0.7c-1.1-0.3-1.2-0.3-1.2-0.9C77.6-1312.3,77.7-1313.1,77.9-1313.7z M67.5-1303.3
		c0-0.8,0.7-1.7,1.5-1.6c0.7,0,1,0.6,1,1.2c0,0.8-0.7,1.9-1.5,1.8C67.8-1301.9,67.4-1302.6,67.5-1303.3z"/>
	<path class="st0" d="M67.9-1284.4L67.9-1284.4L67.9-1284.4z"/>
	<path class="st0" d="M72.6-1287.8c-0.9-0.1-1.7,0-2.5,0.8c-0.8,0.7-0.7,2.2,0.1,3.4c0.6,0.9,1.7,1.4,2.7,1.6c0.2,0,0.6-0.1,0.9-0.3
		c0.9-0.5,1.3-1.3,1.3-2.4C75.2-1286.1,74.2-1287.6,72.6-1287.8z"/>
	<path class="st0" d="M66.5-1311.6c0.2,0,0.5-0.2,0.5-0.4c0-0.2-0.5-1.2-1.3-2.2c-0.8-1.1-1.4-1.9-1.6-1.9c-0.2,0-0.6,0.3-0.6,0.6
		c0,0.3,0.5,1.1,1.3,2.2C65.8-1312,66.2-1311.5,66.5-1311.6z"/>
	<path class="st0" d="M68.1-1313.3c0.1,0.3,0.3,0.5,0.6,0.5l0,0c0.2,0,0.5-0.1,0.6-0.3c0.1-0.2,0-0.9-0.1-1.6
		c-0.2-1.2-0.2-1.4-0.7-1.4s-0.5,0.2-0.5,1.2C67.9-1314.3,68-1313.6,68.1-1313.3z"/>
	<path class="st0" d="M63.2-1310.5c0.8,0.4,1.5,0.6,1.7,0.6c0.2,0,0.4-0.3,0.4-0.5c0.1-0.4-0.2-0.6-1.4-1.2
		c-1.2-0.5-1.5-0.7-1.7-0.5c-0.2,0.1-0.3,0.6-0.3,0.7S62.5-1310.8,63.2-1310.5z"/>
	<path class="st0" d="M172.1-1211.6c-3.4,0.7-6.4,2.8-8.3,5.7c-1.1,1.7-1.7,3.7-1.6,5.8v0.1h13.3v-11.7h-1.2
		C173.3-1211.7,172.3-1211.7,172.1-1211.6z M168.5-1201.9c-0.7,0-1.1-0.7-1-1.4c0-0.8,0.7-1.7,1.5-1.6c0.7,0,1,0.6,1,1.2
		C170-1202.9,169.3-1201.9,168.5-1201.9z"/>
	<path class="st0" d="M163.2-1210.5c0.8,0.4,1.5,0.6,1.7,0.6s0.4-0.3,0.4-0.5c0.1-0.4-0.2-0.6-1.4-1.2c-1.2-0.5-1.5-0.7-1.7-0.5
		c-0.2,0.1-0.3,0.6-0.3,0.7S162.5-1210.8,163.2-1210.5z"/>
	<path class="st0" d="M168.1-1213.3c0.1,0.3,0.3,0.5,0.6,0.5l0,0c0.2,0,0.5-0.1,0.6-0.3c0.1-0.2,0-0.9-0.1-1.6
		c-0.2-1.2-0.2-1.4-0.7-1.4s-0.5,0.2-0.5,1.2C167.9-1214.3,168-1213.6,168.1-1213.3z"/>
	<path class="st0" d="M166.5-1211.6c0.2,0,0.5-0.2,0.5-0.4c0-0.2-0.5-1.2-1.3-2.2c-0.8-1.1-1.4-1.9-1.6-1.9c-0.2,0-0.6,0.3-0.6,0.6
		c0,0.3,0.5,1.1,1.3,2.2C165.8-1212,166.2-1211.5,166.5-1211.6z"/>
	<path class="st0" d="M-21.2-1388.4c1.2-0.1,2.7-0.3,3.4-0.5c3.3-0.9,5.9-3.2,6.8-6.6c0.2-0.8,0.4-2.1,0.4-2.9
		c0-0.5-0.1-1.1-0.1-1.6h-13.8v11.5C-23.4-1388.4-22.3-1388.3-21.2-1388.4z M-17-1399.7c0.7,0,1,0.7,1,1.3c0,0.9-0.8,1.7-1.6,1.7
		c-0.7,0-0.9-0.8-0.9-1.4C-18.4-1398.9-17.8-1399.7-17-1399.7z"/>
	<path class="st0" d="M173-1382c0.2,0,0.6-0.1,0.9-0.3c0.9-0.5,1.3-1.3,1.3-2.4c0-1.4-1-2.9-2.6-3.1c-0.9-0.1-1.7,0-2.5,0.8
		c-0.8,0.7-0.7,2.2,0.1,3.4C170.9-1382.8,171.9-1382.2,173-1382z"/>
	<path class="st0" d="M167.9-1384.4L167.9-1384.4L167.9-1384.4z"/>
	<path class="st0" d="M165.2-1393c1.2,0.1,3-2.4,4.3-2.8c1.2-0.6,2.5-0.6,3.6,0.2c0.4,0.3,1,0.9,1,1c0.1,0.9-4.4,1.4-4.9,1.9
		c-2.7,1.2-3.6,4.1-2.5,6.8c0.2,0.4,0.5,0.9,0.7,1.1s0.4,0.3,0.5,0.3s0.3-0.3,0.4-0.6c0.1-0.3,0.3-0.8,0.3-1.2
		c0-1.3,1.4-2.1,2.4-2.5c1.3-0.4,2.9-0.1,4.4,0.1v-11.5h-13.3c0,1.8,0.6,4,1.8,5.8C164.4-1393.6,165-1393,165.2-1393z"/>
</g>
<g>
	<path class="st4" d="M182.4-1396.6c0.8,0,1.6-0.9,1.6-1.7c0-0.6-0.3-1.3-1-1.3c-0.8,0-1.5,0.8-1.5,1.6
		C181.6-1397.4,181.7-1396.7,182.4-1396.6z"/>
	<path class="st4" d="M369-1205c-0.8-0.1-1.5,0.8-1.5,1.6c-0.1,0.7,0.3,1.4,1,1.4c0.8,0,1.5-1,1.5-1.8
		C370-1204.3,369.7-1204.9,369-1205z"/>
	<path class="st4" d="M176.5-1213.2c0.1-0.8,0.4-1.8,0.7-2.2c0.3-0.6,0.5-0.8,0.9-0.9c0.4,0,0.8,0.2,1.6,0.9l1.1,1l1-0.7
		c0.6-0.4,1.3-0.9,1.7-1.1c0.5-0.3,0.8-0.3,1.1-0.1c0.2,0.1,0.5,0.4,0.6,0.7c0.1,0.3,0.1,1.1,0,2l-0.2,1.5l0.9-0.1
		c0.5-0.1,1.1,0,1.5,0.1s0.7,0.4,0.7,0.6c0.1,0.2,0,0.7-0.2,1c-0.2,0.4-0.8,1.2-1.3,1.8c-0.9,1-1,1.2-0.7,1.4
		c0.2,0.2,0.7,0.9,1.2,1.6c1.2,1.8,1.9,3.7,2.2,5.8h172.9v-0.1c0-2.1,0.5-4.1,1.6-5.8c2-2.9,4.9-5,8.3-5.7c0.2,0,1.2-0.1,2.2-0.1
		h1.2v-176.8c-1.6-0.2-3.1-0.5-4.4-0.1c-1.1,0.4-2.4,1.3-2.4,2.5c0,0.3-0.1,0.8-0.3,1.2c-0.1,0.3-0.3,0.6-0.4,0.6l0,0l0,0l0,0
		c-0.1,0-0.3-0.2-0.5-0.3c-0.2-0.2-0.5-0.7-0.7-1.1c-1.1-2.7-0.2-5.6,2.5-6.8c0.5-0.5,5.1-1,4.9-1.9c-0.1-0.2-0.6-0.7-1-1
		c-1.1-0.8-2.4-0.7-3.6-0.2c-1.3,0.4-3.1,2.9-4.3,2.8c-0.2,0-0.8-0.6-1.2-1.2c-1.2-1.7-1.8-4-1.8-5.8h-173c0.1,0.5,0.1,1.1,0.1,1.6
		c0,0.8-0.2,2.1-0.4,2.9c-0.9,3.4-3.5,5.7-6.8,6.6c-0.7,0.2-2.2,0.4-3.4,0.5c-1.1,0.2-2.2,0.1-3.3-0.1v176.8h0.7L176.5-1213.2z
		 M370.2-1387c0.7-0.7,1.5-0.8,2.5-0.8c1.5,0.2,2.6,1.7,2.6,3.1c0,1-0.5,1.9-1.3,2.4c-0.3,0.2-0.7,0.3-0.9,0.3
		c-1-0.2-2.1-0.8-2.7-1.6C369.5-1384.8,369.4-1386.3,370.2-1387z M368.4-1216.1c0.5,0,0.6,0.2,0.7,1.4c0.1,0.7,0.1,1.4,0.1,1.6
		c-0.1,0.2-0.3,0.3-0.6,0.3l0,0c-0.3,0-0.5-0.2-0.6-0.5s-0.1-1-0.2-1.6C367.9-1216,367.9-1216.1,368.4-1216.1z M273.9-1282.3
		c-0.3,0.2-0.7,0.3-0.9,0.3c-1-0.2-2.1-0.8-2.7-1.6c-0.8-1.2-0.9-2.7-0.1-3.4c0.7-0.7,1.5-0.8,2.5-0.8c1.5,0.2,2.6,1.7,2.6,3.1
		C275.2-1283.6,274.7-1282.8,273.9-1282.3z M364.1-1216c0.2,0,0.9,0.8,1.6,1.9c0.7,1,1.3,2,1.3,2.2s-0.3,0.4-0.5,0.4
		c-0.3,0-0.8-0.4-1.7-1.7c-0.8-1.1-1.4-1.9-1.3-2.2C363.6-1215.7,363.9-1216,364.1-1216z M362.2-1212.1c0.3-0.2,0.5,0,1.7,0.5
		c1.2,0.6,1.4,0.8,1.4,1.2c0,0.3-0.2,0.5-0.4,0.5c-0.2,0-0.9-0.3-1.7-0.6c-0.8-0.4-1.3-0.7-1.3-0.9S362-1211.9,362.2-1212.1z
		 M274.3-1311.7h1.9l0.3-1.4c0.1-0.8,0.4-1.8,0.7-2.2c0.3-0.6,0.5-0.8,0.9-0.9c0.4,0,0.8,0.2,1.6,0.9l1.1,1l1-0.7
		c0.6-0.4,1.3-0.9,1.7-1.1c0.5-0.3,0.8-0.3,1.1-0.1c0.2,0.1,0.5,0.4,0.6,0.7c0.1,0.3,0.1,1.1,0,2l-0.2,1.5l0.9-0.1
		c0.5-0.1,1.1,0,1.5,0.1s0.7,0.4,0.7,0.6s0,0.7-0.2,1c-0.2,0.4-0.8,1.2-1.3,1.8c-0.9,1-1,1.2-0.7,1.4c0.2,0.2,0.7,0.9,1.2,1.6
		c1.5,2.2,2.3,4.8,2.4,7.4c0,0.8-0.2,2.1-0.4,2.9c-0.9,3.4-3.5,5.7-6.8,6.6c-0.7,0.2-2.2,0.4-3.4,0.5c-2.7,0.4-5.5-0.9-7.7-0.2
		c-1.1,0.4-2.4,1.3-2.4,2.5c0,0.3-0.1,0.8-0.3,1.2c-0.1,0.3-0.3,0.6-0.4,0.6l0,0l0,0l0,0c-0.1,0-0.3-0.2-0.5-0.3
		c-0.2-0.2-0.5-0.7-0.7-1.1c-1.1-2.7-0.2-5.6,2.5-6.8c0.5-0.5,5.1-1,4.9-1.9c-0.1-0.2-0.6-0.7-1-1c-1.1-0.8-2.4-0.7-3.6-0.2
		c-1.3,0.4-3.1,2.9-4.3,2.8c-0.2,0-0.8-0.6-1.2-1.2c-1.2-1.8-1.8-4.1-1.8-5.9c0-2.1,0.5-4.1,1.6-5.8c2-2.9,4.9-5,8.3-5.7
		C272.3-1311.7,273.3-1311.7,274.3-1311.7z M268.4-1316.1c0.5,0,0.6,0.2,0.7,1.4c0.1,0.7,0.1,1.4,0.1,1.6c-0.1,0.2-0.3,0.3-0.6,0.3
		l0,0c-0.3,0-0.5-0.2-0.6-0.5s-0.1-1-0.2-1.6C267.9-1316,267.9-1316.1,268.4-1316.1z M264.1-1316c0.2,0,0.9,0.8,1.6,1.9
		c0.7,1,1.3,2,1.3,2.2s-0.3,0.4-0.5,0.4c-0.3,0-0.8-0.4-1.7-1.7c-0.8-1.1-1.4-1.9-1.3-2.2C263.6-1315.7,263.9-1316,264.1-1316z
		 M262.2-1312.1c0.3-0.2,0.5,0,1.7,0.5c1.2,0.6,1.4,0.8,1.4,1.2c0,0.3-0.2,0.5-0.4,0.5c-0.2,0-0.9-0.3-1.7-0.6
		c-0.8-0.4-1.3-0.7-1.3-0.9S262-1311.9,262.2-1312.1z"/>
	<path class="st4" d="M268.5-1301.9c0.8,0,1.5-1,1.5-1.8c0-0.6-0.4-1.2-1-1.2c-0.8-0.1-1.5,0.8-1.5,1.6
		C267.4-1302.6,267.8-1301.9,268.5-1301.9z"/>
	<path class="st4" d="M186.6-1210.9c0-0.1-0.5-0.1-1,0c-0.6,0.1-1.2,0.2-1.5,0.3c-0.4,0.1-0.4,0-0.3-2.1l0.2-2.2l-0.6,0.4
		c-0.3,0.2-1.2,0.8-1.9,1.4c-0.7,0.5-1.3,0.9-1.4,0.8c0-0.1-0.4-0.7-0.7-1.2c-0.4-0.6-0.8-1-0.9-1c-0.2,0-0.4,0.5-0.6,1.1
		c-0.1,0.6-0.3,1.4-0.3,1.7c0,0.5,0.1,0.6,1.2,0.9c0.7,0.2,1.7,0.5,2.4,0.7c0.6,0.3,1.6,0.7,2.1,1.1c0.5,0.3,1.1,0.6,1.2,0.6l0,0
		c0.1,0,0.7-0.5,1.1-1S186.6-1210.8,186.6-1210.9z"/>
	<path class="st4" d="M278.8-1311.1c0.7,0.2,1.7,0.5,2.4,0.7c0.6,0.3,1.6,0.7,2.1,1.1c0.5,0.3,1.1,0.6,1.2,0.6l0,0
		c0.1,0,0.7-0.5,1.1-1s0.9-1.1,0.9-1.2s-0.5-0.1-1,0c-0.6,0.1-1.2,0.2-1.5,0.3c-0.4,0.1-0.4,0-0.3-2.1l0.2-2.2l-0.6,0.4
		c-0.3,0.2-1.2,0.8-1.9,1.4c-0.7,0.5-1.3,0.9-1.4,0.8s-0.4-0.7-0.7-1.2c-0.4-0.6-0.8-1-0.9-1c-0.2,0-0.4,0.5-0.6,1.1
		c-0.1,0.6-0.3,1.4-0.3,1.7C277.6-1311.5,277.7-1311.4,278.8-1311.1z"/>
	<path class="st4" d="M283-1299.7c-0.8,0-1.5,0.8-1.5,1.6c0,0.6,0.2,1.4,0.9,1.4c0.8,0,1.6-0.9,1.6-1.7
		C284-1299,283.7-1299.7,283-1299.7z"/>
	<path class="st0" d="M187-1205.8c-0.5-0.7-1-1.4-1.2-1.6c-0.3-0.3-0.2-0.4,0.7-1.4c0.6-0.6,1.2-1.4,1.3-1.8c0.2-0.4,0.3-0.8,0.2-1
		s-0.4-0.5-0.7-0.6s-1-0.2-1.5-0.1l-0.9,0.1l0.2-1.5c0.1-0.8,0.1-1.7,0-2s-0.3-0.6-0.6-0.7c-0.3-0.2-0.6-0.1-1.1,0.1
		c-0.4,0.2-1.1,0.7-1.7,1.1l-1,0.7l-1.1-1c-0.8-0.7-1.2-1-1.6-0.9c-0.4,0-0.7,0.3-0.9,0.9c-0.2,0.4-0.5,1.5-0.7,2.2l-0.3,1.4h-0.7
		v11.7h13.8C189-1202.1,188.2-1204,187-1205.8z M184.5-1208.7L184.5-1208.7c-0.1,0-0.7-0.3-1.2-0.6c-0.5-0.3-1.5-0.8-2.1-1.1
		c-0.6-0.3-1.7-0.6-2.4-0.7c-1.1-0.3-1.2-0.3-1.2-0.9c0-0.3,0.1-1.1,0.3-1.7c0.2-0.7,0.4-1.1,0.6-1.1c0.2,0,0.6,0.5,0.9,1
		c0.4,0.6,0.7,1.1,0.7,1.2s0.7-0.2,1.4-0.8c0.7-0.5,1.6-1.2,1.9-1.4l0.6-0.4l-0.2,2.2c-0.1,2.1-0.1,2.2,0.3,2.1
		c0.2-0.1,0.9-0.2,1.5-0.3c0.6-0.1,1-0.1,1,0s-0.4,0.6-0.9,1.2S184.7-1208.7,184.5-1208.7z"/>
	<path class="st0" d="M263.8-1306c-1.1,1.7-1.7,3.7-1.6,5.8c0,1.8,0.5,4.2,1.8,5.9c0.4,0.6,1,1.2,1.2,1.2c1.2,0.1,3-2.4,4.3-2.8
		c1.2-0.6,2.5-0.6,3.6,0.2c0.4,0.3,1,0.9,1,1c0.1,0.9-4.4,1.4-4.9,1.9c-2.7,1.2-3.6,4.1-2.5,6.8c0.2,0.4,0.5,0.9,0.7,1.1
		s0.4,0.3,0.5,0.3s0.3-0.3,0.4-0.6c0.1-0.3,0.3-0.8,0.3-1.2c0-1.3,1.4-2.1,2.4-2.5c2.2-0.7,5.1,0.6,7.7,0.2c1.2-0.1,2.7-0.3,3.4-0.5
		c3.3-0.9,5.9-3.2,6.8-6.6c0.2-0.8,0.4-2.1,0.4-2.9c0-2.6-0.9-5.2-2.4-7.4c-0.5-0.7-1-1.4-1.2-1.6c-0.3-0.3-0.2-0.4,0.7-1.4
		c0.6-0.6,1.2-1.4,1.3-1.8c0.2-0.4,0.3-0.8,0.2-1s-0.4-0.5-0.7-0.6s-1-0.2-1.5-0.1l-0.9,0.1l0.2-1.5c0.1-0.8,0.1-1.7,0-2
		s-0.3-0.6-0.6-0.7c-0.3-0.2-0.6-0.1-1.1,0.1c-0.4,0.2-1.1,0.7-1.7,1.1l-1,0.7l-1.1-1c-0.8-0.7-1.2-1-1.6-0.9
		c-0.4,0-0.7,0.3-0.9,0.9c-0.2,0.4-0.5,1.5-0.7,2.2l-0.3,1.4h-1.9c-1,0-2,0-2.2,0.1C268.7-1310.9,265.8-1308.9,263.8-1306z
		 M282.4-1296.6c-0.7,0-0.9-0.8-0.9-1.4c0-0.8,0.7-1.6,1.5-1.6c0.7,0,1,0.7,1,1.3C284-1297.5,283.2-1296.6,282.4-1296.6z
		 M277.9-1313.7c0.2-0.7,0.4-1.1,0.6-1.1s0.6,0.5,0.9,1c0.4,0.6,0.7,1.1,0.7,1.2s0.7-0.2,1.4-0.8c0.7-0.5,1.6-1.2,1.9-1.4l0.6-0.4
		l-0.2,2.2c-0.1,2.1-0.1,2.2,0.3,2.1c0.2-0.1,0.9-0.2,1.5-0.3c0.6-0.1,1-0.1,1,0s-0.4,0.6-0.9,1.2s-1,1-1.1,1l0,0
		c-0.1,0-0.7-0.3-1.2-0.6c-0.5-0.3-1.5-0.8-2.1-1.1c-0.6-0.3-1.7-0.6-2.4-0.7c-1.1-0.3-1.2-0.3-1.2-0.9
		C277.6-1312.3,277.7-1313.1,277.9-1313.7z M267.5-1303.3c0-0.8,0.7-1.7,1.5-1.6c0.7,0,1,0.6,1,1.2c0,0.8-0.7,1.9-1.5,1.8
		C267.8-1301.9,267.4-1302.6,267.5-1303.3z"/>
	<path class="st0" d="M267.9-1284.4L267.9-1284.4L267.9-1284.4z"/>
	<path class="st0" d="M272.6-1287.8c-0.9-0.1-1.7,0-2.5,0.8c-0.8,0.7-0.7,2.2,0.1,3.4c0.6,0.9,1.7,1.4,2.7,1.6
		c0.2,0,0.6-0.1,0.9-0.3c0.9-0.5,1.3-1.3,1.3-2.4C275.2-1286.1,274.2-1287.6,272.6-1287.8z"/>
	<path class="st0" d="M266.5-1311.6c0.2,0,0.5-0.2,0.5-0.4c0-0.2-0.5-1.2-1.3-2.2c-0.8-1.1-1.4-1.9-1.6-1.9s-0.6,0.3-0.6,0.6
		c0,0.3,0.5,1.1,1.3,2.2C265.8-1312,266.2-1311.5,266.5-1311.6z"/>
	<path class="st0" d="M268.1-1313.3c0.1,0.3,0.3,0.5,0.6,0.5l0,0c0.2,0,0.5-0.1,0.6-0.3c0.1-0.2,0-0.9-0.1-1.6
		c-0.2-1.2-0.2-1.4-0.7-1.4s-0.5,0.2-0.5,1.2C267.9-1314.3,268-1313.6,268.1-1313.3z"/>
	<path class="st0" d="M263.2-1310.5c0.8,0.4,1.5,0.6,1.7,0.6s0.4-0.3,0.4-0.5c0.1-0.4-0.2-0.6-1.4-1.2c-1.2-0.5-1.5-0.7-1.7-0.5
		c-0.2,0.1-0.3,0.6-0.3,0.7S262.5-1310.8,263.2-1310.5z"/>
	<path class="st0" d="M372.1-1211.6c-3.4,0.7-6.4,2.8-8.3,5.7c-1.1,1.7-1.7,3.7-1.6,5.8v0.1h13.3v-11.7h-1.2
		C373.3-1211.7,372.3-1211.7,372.1-1211.6z M368.5-1201.9c-0.7,0-1.1-0.7-1-1.4c0-0.8,0.7-1.7,1.5-1.6c0.7,0,1,0.6,1,1.2
		C370-1202.9,369.3-1201.9,368.5-1201.9z"/>
	<path class="st0" d="M363.2-1210.5c0.8,0.4,1.5,0.6,1.7,0.6s0.4-0.3,0.4-0.5c0.1-0.4-0.2-0.6-1.4-1.2c-1.2-0.5-1.5-0.7-1.7-0.5
		c-0.2,0.1-0.3,0.6-0.3,0.7S362.5-1210.8,363.2-1210.5z"/>
	<path class="st0" d="M368.1-1213.3c0.1,0.3,0.3,0.5,0.6,0.5l0,0c0.2,0,0.5-0.1,0.6-0.3c0.1-0.2,0-0.9-0.1-1.6
		c-0.2-1.2-0.2-1.4-0.7-1.4s-0.5,0.2-0.5,1.2C367.9-1214.3,368-1213.6,368.1-1213.3z"/>
	<path class="st0" d="M366.5-1211.6c0.2,0,0.5-0.2,0.5-0.4c0-0.2-0.5-1.2-1.3-2.2c-0.8-1.1-1.4-1.9-1.6-1.9s-0.6,0.3-0.6,0.6
		c0,0.3,0.5,1.1,1.3,2.2C365.8-1212,366.2-1211.5,366.5-1211.6z"/>
	<path class="st0" d="M178.8-1388.4c1.2-0.1,2.7-0.3,3.4-0.5c3.3-0.9,5.9-3.2,6.8-6.6c0.2-0.8,0.4-2.1,0.4-2.9
		c0-0.5-0.1-1.1-0.1-1.6h-13.8v11.5C176.6-1388.4,177.7-1388.3,178.8-1388.4z M183-1399.7c0.7,0,1,0.7,1,1.3c0,0.9-0.8,1.7-1.6,1.7
		c-0.7,0-0.9-0.8-0.9-1.4C181.6-1398.9,182.2-1399.7,183-1399.7z"/>
	<path class="st0" d="M373-1382c0.2,0,0.6-0.1,0.9-0.3c0.9-0.5,1.3-1.3,1.3-2.4c0-1.4-1-2.9-2.6-3.1c-0.9-0.1-1.7,0-2.5,0.8
		c-0.8,0.7-0.7,2.2,0.1,3.4C370.9-1382.8,371.9-1382.2,373-1382z"/>
	<path class="st0" d="M367.9-1384.4L367.9-1384.4L367.9-1384.4z"/>
	<path class="st0" d="M365.2-1393c1.2,0.1,3-2.4,4.3-2.8c1.2-0.6,2.5-0.6,3.6,0.2c0.4,0.3,1,0.9,1,1c0.1,0.9-4.4,1.4-4.9,1.9
		c-2.7,1.2-3.6,4.1-2.5,6.8c0.2,0.4,0.5,0.9,0.7,1.1s0.4,0.3,0.5,0.3s0.3-0.3,0.4-0.6c0.1-0.3,0.3-0.8,0.3-1.2
		c0-1.3,1.4-2.1,2.4-2.5c1.3-0.4,2.9-0.1,4.4,0.1v-11.5h-13.3c0,1.8,0.6,4,1.8,5.8C364.4-1393.6,365-1393,365.2-1393z"/>
</g>
</svg>
