<?xml version="1.0" encoding="utf-8"?>
<!-- Generator: Adobe Illustrator 26.3.1, SVG Export Plug-In . SVG Version: 6.00 Build 0)  -->
<svg version="1.1" id="레이어_1" xmlns="http://www.w3.org/2000/svg" xmlns:xlink="http://www.w3.org/1999/xlink" x="0px"
	 y="0px" viewBox="0 0 186 68" style="enable-background:new 0 0 186 68;" xml:space="preserve">
<style type="text/css">
	.st0{fill:#49333A;}
</style>
<path class="st0" d="M17,14.1h6.5V8H17V14.1z M31.9,0v22.1H8.7V0H31.9z M0,36.3v-8.1h40.6v8.1h-16v8.1h-8.5v-8.1H0z"/>
<path class="st0" d="M86,44.6h-8.7V18.2H86v9.2h7.4v8.1H86V44.6z M62.9,68V48.3h8.7v11.5h15V68H62.9z M63.2,34.9
	c0.8-0.8,1.2-1.8,1.2-2.9c0-1.1-0.4-2.1-1.2-2.9c-0.4-0.4-0.8-0.7-1.3-0.9c-0.5-0.2-1-0.3-1.5-0.3c-0.5,0-1.1,0.1-1.5,0.3
	c-0.5,0.2-0.9,0.5-1.3,0.9c-0.8,0.8-1.2,1.8-1.2,2.9c0,1.1,0.4,2.1,1.2,2.9c0.4,0.4,0.8,0.7,1.3,0.9c0.5,0.2,1,0.3,1.5,0.3
	c0.5,0,1.1-0.1,1.5-0.3S62.8,35.2,63.2,34.9z M69.3,23.3c1.2,1.1,2.1,2.5,2.8,4c0.6,1.5,1,3.1,0.9,4.8c0,1.6-0.3,3.2-0.9,4.7
	c-0.6,1.5-1.6,2.8-2.8,3.9c-2.4,2.3-5.6,3.6-8.9,3.6s-6.5-1.3-8.9-3.6c-1.2-1.1-2.1-2.4-2.8-3.9c-0.6-1.5-1-3.1-0.9-4.7
	c0-1.6,0.3-3.3,0.9-4.8c0.6-1.5,1.6-2.9,2.8-4c2.4-2.3,5.6-3.6,8.9-3.6S66.9,21,69.3,23.3L69.3,23.3z M55.7,3.5H65v6.3h8.4v8H47.1
	v-8h8.6V3.5z"/>
<path class="st0" d="M105.7,22.1V0.3h24.1v8.1h-15.6V14h15.6v8.1h-7.6v6.3h16.1v8.2H97.7v-8.2h16v-6.3H105.7z"/>
<path class="st0" d="M169.4,35.5v-8.1h7.2v-9.2h8.6v26.2h-8.6v-9H169.4z M162.2,67.7V48.2h8.6v11.4h14.8v8.1H162.2z M150.1,43.3
	l-6.7-4.5l8.6-12.4h-7v-7.8h24.6v7.8h-7l8.4,12.1l-6.5,4.6l-7-10.5L150.1,43.3"/>
</svg>
